<?xml version="1.0" encoding="UTF-8"?>
<svg id="Layer_1" data-name="Layer 1" xmlns="http://www.w3.org/2000/svg" viewBox="0 0 30.24 32.12">
  <path d="m14.52,17.45c1.6,1.33,2.79,2.31,3.97,3.29,2.36-1.4,1.79-3.85,2.86-5.73h5.76c.89,1.05.48,2.06.06,3-.69,1.53-1.47,3.01-2.2,4.51-.93,1.93-.21,3.06,1.97,3.08,2.2.02,2.23.04,2.77,2.01.17.62.34,1.24.44,1.86.34,2.13-.41,2.95-2.48,2.53-1.24-.25-2.49-.64-3.61-1.2-2.12-1.07-4.01-1.25-6.36-.22-4.85,2.13-9.66,1.6-14.03-1.55-4.15-2.99-4.94-8.97-1.61-12.82,1.24-1.44,1.59-2.62.79-4.49C1.11,7.65,3.05,3.2,7.24,1.14c4.07-2,9.58-1.5,13.08,2.46,1.49,1.68,1.98,3.7,1.59,5.79-.58,3.1-2.01,5.63-5.41,6.52-.59.15-1.06.8-1.98,1.54Zm-6.34-9.07c-.07,2.65,1.66,3.98,3.77,3.24,1.11-.39,2.19-.91,3.21-1.5,1.28-.74,1.39-2.11.36-3.15-1.62-1.61-5.18-1.56-6.68.15-.39.44-.56,1.07-.65,1.25Zm-.31,10.95c-1.18.33-1.77,1.02-1.73,1.95.04.9.19,1.95.69,2.64,1.49,2.05,4.48,2.64,7.34,1.48-1.81-2.49-4.28-4.12-6.3-6.08Z"/>
</svg>