<?xml version="1.0" encoding="UTF-8"?>
<svg id="Layer_1" data-name="Layer 1" xmlns="http://www.w3.org/2000/svg" viewBox="0 0 175.59 30.79">
  <path d="m7.54,30.71c-1.84,0-3.67,0-5.51,0-2.05-.01-2.43-.59-1.59-2.41.13-.29.38-.57.39-.86.15-3.57.68-7.17-.34-10.69-.3-1.04-.43-1.9.06-2.97.41-.9.48-2.02.46-3.04C.93,7.75,1.57,4.69.12,1.8-.27,1.04.35.22,1.12.24c4.27.09,8.62-.97,12.77.77,1.06.45,2.15,1.03,2.98,1.82,2.3,2.18,3.1,4.97,2.42,8.03-.36,1.62-.18,2.86.88,4.18,2.58,3.21,2.8,6.77,1.34,10.58-1.06,2.76-3.04,4.23-5.85,4.57-2.69.32-5.4.42-8.11.61,0-.03,0-.05-.01-.08Zm3.67-5.87v.03c.48,0,.96.02,1.44,0,.4-.02.8-.04,1.19-.14,1.88-.47,2.95-1.68,2.92-3.27-.03-1.63-1.37-3.14-3.24-3.26-1.74-.11-3.51.06-5.26.21-1,.09-1.46.76-1.59,1.79-.45,3.72.26,4.56,4.05,4.64.16,0,.32,0,.48,0Zm-4.6-15.69s.04,0,.06,0c0,.64-.05,1.28.01,1.91.15,1.44.67,1.8,2.04,1.52.78-.16,1.55-.31,2.34-.44,1.62-.26,2.28-.77,2.56-2.07.29-1.35.04-2.5-1.14-3.4-1.59-1.21-3.33-.85-5.03-.49-.35.07-.68.82-.81,1.31-.14.52-.03,1.11-.03,1.66Z"/>
  <path d="m60.54,29.67c1.47-1.26,1.41-2.89,1.4-4.47-.02-3.18.52-6.39-.71-9.49-.16-.4-.14-.98.01-1.4,1.21-3.26.73-6.63.62-9.96-.03-.83-.56-1.63-.83-2.46-.33-1-.03-1.53,1-1.72.47-.09.96-.06,1.43-.06,3.2,0,6.4.09,9.59,0,7.2-.22,10.85,6.06,9.59,12.03-.27,1.27-1.09,2.45-1.77,3.6-.49.82-1.19,1.5-1.76,2.27-.47.64-.48,1.27.02,1.97,1.9,2.72,3.78,5.47,5.61,8.24.32.49.63,1.2.51,1.71-.2.82-1.02.81-1.79.77-1.28-.07-2.56-.01-3.83-.06-1.15-.05-1.91-.45-2.07-1.82-.1-.9-.56-1.83-1.07-2.62-1.15-1.8-2.33-3.59-3.68-5.23-.6-.73-1.58-1.37-2.5-1.6-1.8-.45-2.56.19-2.6,2.04-.04,2.53-.5,5.11.87,7.5.43.74.19,1.62-.69,1.66-2.22.08-4.45-.06-6.67-.14-.16,0-.31-.32-.71-.76Zm7.43-23.65c-.37,2.25-.28,4.46-.05,6.66.04.39.69,1.01,1.09,1.03,2.05.1,4.13.42,6.1-.57,1.51-.75,2.31-2.33,1.99-4.18-.31-1.83-1.35-2.86-3.16-2.93-1.9-.07-3.81-.02-5.97-.02Z"/>
  <path d="m169.05,19.01c1.95,2.94,3.93,5.89,5.85,8.87.36.56.85,1.55.63,1.85-.39.52-1.27.86-1.98.92-1.26.12-2.56.03-3.83-.05-1.04-.07-1.6-.59-1.97-1.7-.56-1.71-1.44-3.32-2.29-4.92-.59-1.11-1.38-2.11-2.06-3.17-.79-1.23-3.57-1.9-4.74-1.01-.43.33-.81,1.04-.8,1.57.02,2.37-.28,4.76.86,7.05.73,1.47.25,2.14-1.32,2.22-1.52.08-3.04.1-4.55.01-1.29-.08-1.76-.79-1.25-1.92,1.44-3.23,1.17-6.58.62-9.89-.44-2.63-.62-5.1.04-7.79.65-2.66.71-5.51-.5-8.23-.88-1.98-.37-2.62,1.79-2.66,3.12-.05,6.24-.1,9.35-.07,2.78.02,5.27.78,7.4,2.75,2.72,2.52,3.84,7.35,2.11,10.71-.97,1.88-2.21,3.61-3.35,5.45Zm-11.1-6.41c2.72,1.68,5.24,1.44,7.76.33,2.22-.98,2.87-4.04.82-5.66-2.35-1.86-4.92-1.51-7.51-1.08-.42.07-.98.88-1.02,1.39-.13,1.65-.05,3.31-.05,5.02Z"/>
  <path d="m103.54.19c4.61-.14,7.7,1.87,10.3,4.86.68.78,1.43,1.51,1.99,2.37.81,1.25.53,1.89-.74,2.71-1.19.76-2.35,1.59-3.4,2.53-.37.33-.58,1.15-.45,1.64.09.34.85.65,1.35.71.95.11,1.92-.02,2.87.03,1.38.07,2.12.77,1.98,2.11-.47,4.49-2.47,8.18-6.25,10.74-1.56,1.06-3.15,2.04-5.12,2.44-4.84,1-11.45-1.58-14.1-7.13-.62-1.29-1.06-2.67-1.73-3.93-1.24-2.31-.99-4.63-.21-6.96.58-1.73,1.13-3.49,1.92-5.13,1.05-2.18,2.76-3.87,4.86-5.07,2.22-1.27,4.53-2.32,6.74-1.91Zm2.66,14.72c.74,0,1.29-.03,1.84,0,.91.06,1.35-.51,1.52-1.23.25-1.07.41-2.16.51-3.26.04-.44-.06-.97-.29-1.35-1.35-2.26-4.99-3.68-7.55-3-3.79,1-6.32,4.37-6.21,8.2.03.95-.09,1.91-.07,2.87.01.71,0,1.47.25,2.12,1.59,4.12,6.77,6.38,10.86,4.64.94-.4,2.12-1.07,2.15-2.74-.65.1-1.16.19-1.67.25-1.06.13-1.75-.35-1.83-1.39-.12-1.65-.31-3.33.5-5.11Z"/>
  <path d="m36.64.01c.07.76.27,1.23.12,1.52-1.89,3.54-1.24,7.28-.86,10.98.05.46.38.88.45,1.33.12.73.42,1.63.14,2.2-1.25,2.48-.72,4.97-.42,7.53,1.59.77,3.11,1.45,4.85,1.2,2.61-.37,3.91-1.52,4.01-4.43.04-1.16-.45-2.32-.6-3.49-.12-.91-.28-1.89-.09-2.76.91-4,1.38-7.96-.24-11.91-.62-1.52-.26-2.07,1.37-2.1,1.98-.04,3.96,0,6.28,0-.1.82.03,1.53-.27,1.92-.8,1.05-.87,2.21-.8,3.41.16,3.09.68,6.21.49,9.28-.26,4.17-.2,8.52-2.38,12.29-.61,1.06-1.95,1.87-3.13,2.4-4.05,1.8-8.85,2.28-13.15-1.61-1.5-1.36-2.08-3.36-2.32-5.37-.27-2.22-.5-4.44-.64-6.66-.06-1.02.02-2.08.25-3.08.7-3.11.33-6.2,0-9.29-.08-.75-.49-1.46-.84-2.44,2.4-1.47,5.04-.45,7.77-.92Z"/>
  <path d="m130.97,11.82c1.22.96,2.49.5,3.75.43,1.27-.07,2.54-.02,3.95-.02.78,1.74.32,3.58.25,5.35-.04.98-.94,1.15-1.82,1.07-1.27-.12-2.54-.25-3.81-.29-.7-.02-1.4.12-2.14.2-.17.68-.36,1.2-.43,1.74-.47,3.88.12,4.56,3.95,4.54,2.14,0,4.24.08,6.36-.65,2.29-.79,2.87-.19,2.87,2.21,0,4.13-.03,4.17-4.09,4.21-4.24.04-8.47.05-12.71.07-.48,0-.96,0-1.44-.05-1.91-.2-2.3-.86-1.37-2.47,1-1.73,1.31-3.56,1.05-5.51-.52-3.8-.92-7.61-.38-11.44.12-.87.3-1.73.43-2.59.34-2.27.09-4.44-.98-6.51-.77-1.5-.47-2.03,1.23-2.04,5.27-.03,10.55,0,15.82.06,1.7.02,2.29.68,2.37,2.32.04.88.06,1.76,0,2.64-.1,1.6-.74,2.2-2.12,1.57-2.71-1.22-5.51-.69-8.28-.73-1.91-.03-2.35.46-2.53,2.4-.09.87-.09,1.75-.1,2.63,0,.31.12.61.17.87Z"/>
</svg>