<?xml version="1.0" encoding="UTF-8"?>
<svg id="Layer_1" data-name="Layer 1" xmlns="http://www.w3.org/2000/svg" viewBox="0 0 393.58 32.12">
  <path d="m202.12,17.45c1.6,1.33,2.79,2.31,3.97,3.29,2.36-1.4,1.79-3.85,2.86-5.73h5.76c.89,1.05.48,2.06.06,3-.69,1.53-1.47,3.01-2.2,4.51-.93,1.93-.21,3.06,1.97,3.08,2.2.02,2.23.04,2.77,2.01.17.62.34,1.24.44,1.86.34,2.13-.41,2.95-2.48,2.53-1.24-.25-2.49-.64-3.61-1.2-2.12-1.07-4.01-1.25-6.36-.22-4.85,2.13-9.66,1.6-14.03-1.55-4.15-2.99-4.94-8.97-1.61-12.82,1.24-1.44,1.59-2.62.79-4.49-1.75-4.08.18-8.53,4.38-10.59,4.07-2,9.58-1.5,13.08,2.46,1.49,1.68,1.98,3.7,1.59,5.79-.58,3.1-2.01,5.63-5.41,6.52-.59.15-1.06.8-1.98,1.54Zm-6.34-9.07c-.07,2.65,1.66,3.98,3.77,3.24,1.11-.39,2.19-.91,3.21-1.5,1.28-.74,1.39-2.11.36-3.15-1.62-1.61-5.18-1.56-6.68.15-.39.44-.56,1.07-.65,1.25Zm-.31,10.95c-1.18.33-1.77,1.02-1.73,1.95.04.9.19,1.95.69,2.64,1.49,2.05,4.48,2.64,7.34,1.48-1.81-2.49-4.28-4.12-6.3-6.08Z"/>
  <path d="m282.12,30.67c-.39,1.03-1.31,1.03-2.19,1.04-1.92,0-3.84.05-5.75-.06-.63-.04-1.39-.36-1.78-.81-.18-.21.25-1.21.65-1.59.66-.63.8-1.31.8-2.14,0-2.08.07-4.15.02-6.23-.02-.78-.18-1.6-.5-2.3-.69-1.56-.53-2.95-.06-4.6,1.03-3.62,1.33-7.34-.48-10.91-.23-.46-.31-1-.5-1.65.63-.15,1.07-.35,1.5-.34,5.35.03,10.72-.12,16.06.2,5.12.3,10.28,4.39,9.94,10.1-.14,2.31-1.28,4.08-2.85,5.58-2.92,2.78-2.87,2.86-.25,5.87,2.06,2.37,4.27,4.67,5.65,7.53-.59,1.1-1.53,1.23-2.5,1.26-1.68.04-3.36.08-5.03.05-1.63-.03-1.74-.22-1.86-1.91-.04-.52-.22-1.1-.53-1.51-1.68-2.21-3.39-4.4-5.17-6.53-1.03-1.24-4.2-1.94-5.58-1.22-.46.24-.9.95-.93,1.47-.11,1.91-.2,3.85.02,5.74.12,1.02.86,1.97,1.33,2.97Zm3.02-15.91c.72,0,1.46.13,2.14-.03,1.45-.33,3.15-.43,4.23-1.28,2.39-1.9,1.47-5.14-1.5-6.05-2.49-.76-5.03-.68-7.57-.41-1.12.12-1.72.73-1.75,1.87-.01.48-.02.95-.02,1.43,0,4.52.05,4.58,4.47,4.47Z"/>
  <path d="m254.22,15.87c.84.05,1.69.13,2.53.14,1.68.02,3.35-.06,5.03,0,1.58.05,2.06.66,2.13,2.24.11,2.47-.94,4.59-2.42,6.34-4.2,4.96-9.58,7.4-16.17,6.84-3.15-.26-6.32-1.1-8.73-2.92-3.64-2.74-6.14-6.59-7.18-11.18-.07-.31-.1-.65-.04-.95,1-4.7,2.75-9,6.86-11.86,3.18-2.22,6.78-3.19,10.67-3.37,5.36-.25,9.63,1.89,13.29,5.58.56.56,1.3.94,1.84,1.51,1.08,1.15.85,2.13-.57,2.82-1.98.96-3.98,1.9-5.94,2.91-.58.3-1.05.82-1.58,1.24.09.22.18.44.27.66Zm-.71,6.49c-.25-.05-.56-.17-.85-.15-3.14.28-3.36.1-3.37-3.01,0-.56-.07-1.17.13-1.66.29-.69.7-1.41,1.24-1.9.99-.89,2.07-1.69,3.2-2.41.53-.34,1.32-.41,1.19-1.23-.11-.67-.29-1.45-.72-1.93-.72-.82-1.56-1.74-2.54-2.09-3.13-1.14-6.36-1.65-9.51-.04-1.96,1-3.71,2.47-4.34,4.56-.81,2.69-.56,5.53.09,8.28.05.2.33.34.46.53,2.2,3.04,5.35,4.24,8.91,4.18,1.91-.03,3.94-.27,5.65-1.49.63-.45.9-.84.47-1.64Z"/>
  <path d="m7.54,31.7c-1.84,0-3.67,0-5.51,0-2.05-.01-2.43-.59-1.59-2.41.13-.29.38-.57.39-.86.15-3.57.68-7.17-.34-10.69-.3-1.04-.43-1.9.06-2.97.41-.9.48-2.02.46-3.04-.08-3,.56-6.06-.89-8.95-.38-.76.24-1.57,1.01-1.56,4.27.09,8.62-.97,12.77.77,1.06.45,2.15,1.03,2.98,1.82,2.3,2.18,3.1,4.97,2.42,8.03-.36,1.62-.18,2.86.88,4.18,2.58,3.21,2.8,6.77,1.34,10.58-1.06,2.76-3.04,4.23-5.85,4.57-2.69.32-5.4.42-8.11.61,0-.03,0-.05-.01-.08Zm3.67-5.87v.03c.48,0,.96.02,1.44,0,.4-.02.8-.04,1.19-.14,1.88-.47,2.95-1.68,2.92-3.27-.03-1.63-1.37-3.14-3.24-3.26-1.74-.11-3.51.06-5.26.21-1,.09-1.46.76-1.59,1.79-.45,3.72.26,4.56,4.05,4.64.16,0,.32,0,.48,0Zm-4.6-15.69s.04,0,.06,0c0,.64-.05,1.28.01,1.91.15,1.44.67,1.8,2.04,1.52.78-.16,1.55-.31,2.34-.44,1.62-.26,2.28-.77,2.56-2.07.29-1.35.04-2.5-1.14-3.4-1.59-1.21-3.33-.85-5.03-.49-.35.07-.68.82-.81,1.31-.14.52-.03,1.11-.03,1.66Z"/>
  <path d="m60.54,30.65c1.47-1.26,1.41-2.89,1.4-4.47-.02-3.18.52-6.39-.71-9.49-.16-.4-.14-.98.01-1.4,1.21-3.26.73-6.63.62-9.96-.03-.83-.56-1.63-.83-2.46-.33-1-.03-1.53,1-1.72.47-.09.96-.06,1.43-.06,3.2,0,6.4.09,9.59,0,7.2-.22,10.85,6.06,9.59,12.03-.27,1.27-1.09,2.45-1.77,3.6-.49.82-1.19,1.5-1.76,2.27-.47.64-.48,1.27.02,1.97,1.9,2.72,3.78,5.47,5.61,8.24.32.49.63,1.2.51,1.71-.2.82-1.02.81-1.79.77-1.28-.07-2.56-.01-3.83-.06-1.15-.05-1.91-.45-2.07-1.82-.1-.9-.56-1.83-1.07-2.62-1.15-1.8-2.33-3.59-3.68-5.23-.6-.73-1.58-1.37-2.5-1.6-1.8-.45-2.56.19-2.6,2.04-.04,2.53-.5,5.11.87,7.5.43.74.19,1.62-.69,1.66-2.22.08-4.45-.06-6.67-.14-.16,0-.31-.32-.71-.76Zm7.43-23.65c-.37,2.25-.28,4.46-.05,6.66.04.39.69,1.01,1.09,1.03,2.05.1,4.13.42,6.1-.57,1.51-.75,2.31-2.33,1.99-4.18-.31-1.83-1.35-2.86-3.16-2.93-1.9-.07-3.81-.02-5.97-.02Z"/>
  <path d="m169.05,20c1.95,2.94,3.93,5.89,5.85,8.87.36.56.85,1.55.63,1.85-.39.52-1.27.86-1.98.92-1.26.12-2.56.03-3.83-.05-1.04-.07-1.6-.59-1.97-1.7-.56-1.71-1.44-3.32-2.29-4.92-.59-1.11-1.38-2.11-2.06-3.17-.79-1.23-3.57-1.9-4.74-1.01-.43.33-.81,1.04-.8,1.57.02,2.37-.28,4.76.86,7.05.73,1.47.25,2.14-1.32,2.22-1.52.08-3.04.1-4.55.01-1.29-.08-1.76-.79-1.25-1.92,1.44-3.23,1.17-6.58.62-9.89-.44-2.63-.62-5.1.04-7.79.65-2.66.71-5.51-.5-8.23-.88-1.98-.37-2.62,1.79-2.66,3.12-.05,6.24-.1,9.35-.07,2.78.02,5.27.78,7.4,2.75,2.72,2.52,3.84,7.35,2.11,10.71-.97,1.88-2.21,3.61-3.35,5.45Zm-11.1-6.41c2.72,1.68,5.24,1.44,7.76.33,2.22-.98,2.87-4.04.82-5.66-2.35-1.86-4.92-1.51-7.51-1.08-.42.07-.98.88-1.02,1.39-.13,1.65-.05,3.31-.05,5.02Z"/>
  <path d="m103.54,1.18c4.61-.14,7.7,1.87,10.3,4.86.68.78,1.43,1.51,1.99,2.37.81,1.25.53,1.89-.74,2.71-1.19.76-2.35,1.59-3.4,2.53-.37.33-.58,1.15-.45,1.64.09.34.85.65,1.35.71.95.11,1.92-.02,2.87.03,1.38.07,2.12.77,1.98,2.11-.47,4.49-2.47,8.18-6.25,10.74-1.56,1.06-3.15,2.04-5.12,2.44-4.84,1-11.45-1.58-14.1-7.13-.62-1.29-1.06-2.67-1.73-3.93-1.24-2.31-.99-4.63-.21-6.96.58-1.73,1.13-3.49,1.92-5.13,1.05-2.18,2.76-3.87,4.86-5.07,2.22-1.27,4.53-2.32,6.74-1.91Zm2.66,14.72c.74,0,1.29-.03,1.84,0,.91.06,1.35-.51,1.52-1.23.25-1.07.41-2.16.51-3.26.04-.44-.06-.97-.29-1.35-1.35-2.26-4.99-3.68-7.55-3-3.79,1-6.32,4.37-6.21,8.2.03.95-.09,1.91-.07,2.87.01.71,0,1.47.25,2.12,1.59,4.12,6.77,6.38,10.86,4.64.94-.4,2.12-1.07,2.15-2.74-.65.1-1.16.19-1.67.25-1.06.13-1.75-.35-1.83-1.39-.12-1.65-.31-3.33.5-5.11Z"/>
  <path d="m36.64,1c.07.76.27,1.23.12,1.52-1.89,3.54-1.24,7.28-.86,10.98.05.46.38.88.45,1.33.12.73.42,1.63.14,2.2-1.25,2.48-.72,4.97-.42,7.53,1.59.77,3.11,1.45,4.85,1.2,2.61-.37,3.91-1.52,4.01-4.43.04-1.16-.45-2.32-.6-3.49-.12-.91-.28-1.89-.09-2.76.91-4,1.38-7.96-.24-11.91-.62-1.52-.26-2.07,1.37-2.1,1.98-.04,3.96,0,6.28,0-.1.82.03,1.53-.27,1.92-.8,1.05-.87,2.21-.8,3.41.16,3.09.68,6.21.49,9.28-.26,4.17-.2,8.52-2.38,12.29-.61,1.06-1.95,1.87-3.13,2.4-4.05,1.8-8.85,2.28-13.15-1.61-1.5-1.36-2.08-3.36-2.32-5.37-.27-2.22-.5-4.44-.64-6.66-.06-1.02.02-2.08.25-3.08.7-3.11.33-6.2,0-9.29-.08-.75-.49-1.46-.84-2.44,2.4-1.47,5.04-.45,7.77-.92Z"/>
  <path d="m130.97,12.81c1.22.96,2.49.5,3.75.43,1.27-.07,2.54-.02,3.95-.02.78,1.74.32,3.58.25,5.35-.04.98-.94,1.15-1.82,1.07-1.27-.12-2.54-.25-3.81-.29-.7-.02-1.4.12-2.14.2-.17.68-.36,1.2-.43,1.74-.47,3.88.12,4.56,3.95,4.54,2.14,0,4.24.08,6.36-.65,2.29-.79,2.87-.19,2.87,2.21,0,4.13-.03,4.17-4.09,4.21-4.24.04-8.47.05-12.71.07-.48,0-.96,0-1.44-.05-1.91-.2-2.3-.86-1.37-2.47,1-1.73,1.31-3.56,1.05-5.51-.52-3.8-.92-7.61-.38-11.44.12-.87.3-1.73.43-2.59.34-2.27.09-4.44-.98-6.51-.77-1.5-.47-2.03,1.23-2.04,5.27-.03,10.55,0,15.82.06,1.7.02,2.29.68,2.37,2.32.04.88.06,1.76,0,2.64-.1,1.6-.74,2.2-2.12,1.57-2.71-1.22-5.51-.69-8.28-.73-1.91-.03-2.35.46-2.53,2.4-.09.87-.09,1.75-.1,2.63,0,.31.12.61.17.87Z"/>
  <path d="m369.23,30.48c1.8-3.08,1.47-6.56,1.27-9.95-.09-1.54-1.2-3.03-1.2-4.55,0-1.42.98-2.82,1.24-4.28.24-1.32.11-2.71.12-4.07,0-1.77-.04-3.47-1.57-4.81-.78-.68-.39-1.63.62-1.65,2.71-.06,5.43,0,8.15.04.2,0,.4.21.62.33.04.26.18.54.09.71-1.8,3.65-.94,7.51-.93,11.3,0,.46.14.98.39,1.36.62,1,.55,1.95.07,2.96-.9,1.89-.74,3.88-.55,5.88.09.94.49,1.49,1.35,1.73.53.15,1.08.35,1.62.36,3.66.04,7.34.37,10.92-.89,1.6-.56,2.15-.07,2.15,1.65,0,.96-.04,1.92-.11,2.87-.11,1.44-.59,1.95-2.06,2.14-.71.09-1.44.07-2.16.07-5.84,0-11.68-.01-17.52,0-.98,0-1.95.01-2.5-1.18Z"/>
  <path d="m358.68,24.44c1.05.43,1.13,1.28,1.07,2.21-.06.95-.11,1.9-.13,2.86-.03,1.3-.5,1.9-1.75,2.12-.39.07-.8.05-1.2.05-6.39.02-12.78.03-19.18.04-.88,0-1.8.05-2.27-1.05,1.67-2.93,1.61-6.21,1.49-9.46-.04-1.06-.63-2.12-1.07-3.13-.44-1.02-.53-1.98,0-2.99,1.55-2.91,1.1-6.07.99-9.15-.04-.97-.68-1.93-1.1-2.86-.62-1.36-.37-1.97,1.11-2,2.23-.05,4.47.04,6.71.12,1.03.04,1.46.66,1.08,1.63-1.37,3.49-.71,7.07-.55,10.64.08,1.89.02,3.8-.03,5.69-.04,1.43-.23,2.87-.23,4.3,0,1.48.37,1.98,1.76,2.05,3.27.17,6.55.3,9.81.21,1.12-.03,2.22-.78,3.49-1.27Z"/>
  <path d="m318.45,1.13c1.2,0,2.4-.08,3.59.02,1.16.1,1.62.82,1.03,1.79-2.02,3.29-.92,6.85-1,10.3-.02.61.72,1.21.92,1.87.19.63.43,1.54.13,1.96-1.26,1.78-1.17,3.8-1.18,5.75-.01,2.43-.38,4.94,1.14,7.19.55.82.09,1.5-1.01,1.6-1.11.11-2.24.03-3.35.03-1.04,0-2.08.04-3.12,0-1.69-.05-2.11-.7-1.5-2.32.11-.3.34-.55.44-.85.71-2.05,1.29-4.06.62-6.3-.52-1.74-.74-3.59-.96-5.4-.08-.66.12-1.4.33-2.05,1.27-3.96.92-7.84-.49-11.67-.5-1.36-.19-1.94,1.29-1.99,1.04-.04,2.08,0,3.12,0,0,.02,0,.04,0,.06Z"/>
</svg>