<?xml version="1.0" encoding="UTF-8"?>
<svg id="Layer_1" data-name="Layer 1" xmlns="http://www.w3.org/2000/svg" viewBox="0 0 394.94 88.01">
  <path d="m166.09,43.33c0,10.79,0,21.58,0,32.38,0,2.41-.3,4.75-1.04,7.08-.64,2.02-2.19,3.21-3.81,4-1.59.77-3.55,1.06-5.34,1.07-9.76.1-19.51.08-29.27.03-3.78-.02-7.07-2.71-7.76-6.36-.46-2.42-.86-4.89-.87-7.34-.07-19.99-.07-39.97,0-59.96,0-2.77.21-5.6.8-8.3.78-3.58,4-5.85,7.71-5.87,7.36-.04,14.71-.03,22.07-.04,2.72,0,5.44.07,8.16,0,3.09-.09,5.78,1,7.48,3.42,1.07,1.53,1.48,3.68,1.71,5.62.3,2.53.17,5.11.18,7.67.01,8.87,0,17.75,0,26.62h-.02Zm-16.07.45c0-8.31,0-16.63,0-24.94,0-.72.04-1.46-.12-2.15-.67-2.82-1.66-4.46-5.15-4.55-2.08-.05-4.16.02-6.24.03-1.92,0-3.19.94-3.74,2.74-.34,1.13-.69,2.31-.69,3.47-.04,14.55-.02,29.1-.02,43.64,0,2.64-.12,5.28.03,7.91.2,3.67,1.79,5.93,5.94,5.95.96,0,1.92.07,2.88.04,5.5-.17,7.05-1.75,7.11-7.21.08-8.31.02-16.63.02-24.94Z"/>
  <path d="m32.83,27.47c-.61-1.77-.75-3.71-.42-5.74.34-2.15.21-4.3-.56-6.38-.76-2.07-2.06-3.12-4.25-3.19-2.08-.06-4.16-.05-6.24-.05-3.07,0-5.18,1.97-5.41,5.09-.06.8-.04,1.6-.04,2.4,0,16.15,0,32.31.01,48.46,0,.88,0,1.76.08,2.64.3,3.05,2.24,4.96,5.29,5.11,1.84.09,3.68.06,5.52,0,2.45-.09,4.37-1.75,4.9-4.13.05-.23.09-.47.1-.71.02-6.32.2-12.64-.07-18.94-.08-1.84-1.47-3.63-2.25-5.44-.29-.68-.56-1.37-.85-2.08,2.66-.88,19.94-.89,22.64,0-.27.78-.39,1.65-.83,2.32-1.85,2.83-2.57,5.84-2.48,9.27.18,7.19,0,14.39.03,21.59.02,3.17-.96,5.92-3.13,8.21-.42.44-1.01.87-1.58.97-2.59.44-5.19,1.04-7.79,1.08-7.92.12-15.84.06-23.76-.04-1.98-.03-4.08-.12-5.9-.8-2.31-.86-4.46-2.1-5.13-5.02-.49-2.14-.7-4.23-.7-6.38C0,54.16-.02,32.65.03,11.14c0-1.81.29-3.66.74-5.42C1.59,2.53,4.34.32,7.65.21,12.6.06,17.56.05,22.52.03c4.8-.03,9.6.06,14.4-.02,2.43-.04,4.9.04,6.96,1.25,1.31.77,2.45,2.29,3.04,3.73.71,1.72,1,3.71,1.03,5.59.12,7.27.07,14.55.09,21.83,0,.32.02.64-.02.96-.19,1.44-.84,1.86-2.09,1.22-2.27-1.16-4.5-2.4-6.74-3.61-2.08-1.13-4.15-2.28-6.35-3.49Z"/>
  <path d="m258.42,86.61c-.31,1.12-1.1,1.31-2.06,1.31-6.4,0-12.79.02-19.19-.01-.48,0-1.28-.26-1.36-.56-.14-.5.06-1.19.34-1.68.7-1.24,1.56-2.39,2.29-3.61,1.93-3.27,1.83-7.05,2.56-10.62.8-3.89,1.52-7.8,2.27-11.69.15-.78.28-1.56.42-2.34.61-3.44,1.22-6.88,1.83-10.32.34-1.88.7-3.76,1.02-5.65,1.11-6.53,2.15-13.06,3.32-19.58.83-4.63,1.88-9.23,2.74-13.86.36-1.96.48-3.96.75-5.93.21-1.55.58-1.98,2.14-1.99,7.03-.04,14.06-.02,21.29-.02.35.8.82,1.55,1,2.36.4,1.78.63,3.6.96,5.4.92,5.02,1.9,10.02,2.78,15.04.78,4.48,1.43,8.98,2.19,13.46.82,4.88,1.66,9.75,2.54,14.62,1.23,6.82,2.51,13.63,3.78,20.44.39,2.12.85,4.22,1.22,6.34.45,2.56,1.62,4.79,3.03,6.93.49.74,1.1,1.81.89,2.51-.37,1.27-1.75.74-2.73.75-5.84.03-11.68.02-17.51.03-.56,0-1.13.05-1.68-.04-1.1-.18-1.42-.8-.97-1.88.58-1.4,1.34-2.73,1.76-4.17.32-1.11.37-2.34.3-3.5-.12-1.75-.36-3.5-.72-5.22-.38-1.82-.8-2.15-2.6-2.16-3.76-.03-7.52-.02-11.27.05-2.25.04-2.72.58-2.97,2.85-.12,1.11-.23,2.23-.51,3.31-.65,2.55-.15,4.87,1.12,7.11.43.75.7,1.58,1.02,2.32Zm7.21-67.6c-.17-.01-.33-.02-.5-.03-.12.37-.28.72-.35,1.1-.57,3.12-1.21,6.22-1.67,9.36-1.34,9.14-2.61,18.29-3.9,27.43-.17,1.23.38,2.1,1.59,2.13,3.03.06,6.07.04,9.1-.08,1.43-.06,1.82-.84,1.5-2.3-.22-1.01-.4-2.02-.54-3.05-.44-3.16-.81-6.32-1.29-9.47-.49-3.21-1.16-6.39-1.61-9.61-.49-3.46-.76-6.96-1.24-10.42-.24-1.7-.72-3.37-1.09-5.05Z"/>
  <path d="m359.32,86.58c.65-1.11,1.33-2.17,1.92-3.28.98-1.84,1.67-3.72,1.67-5.89-.05-21.19-.04-42.37-.05-63.56,0-.4.03-.81-.03-1.2-.2-1.17-.95-1.71-2.06-1.29-1.1.41-2.16.97-3.16,1.59-2.8,1.74-5.53,3.59-8.36,5.29-1.66,1-2.46.51-2.46-1.45,0-4.87.06-9.75.15-14.62.03-1.61.43-1.97,1.97-2.12.56-.05,1.12-.03,1.68-.03,13.6,0,27.19,0,40.79,0,3.56,0,3.58.04,3.57,3.61-.02,4.32-.04,8.63-.06,12.95-.01,2.29-.82,2.79-2.75,1.61-2.91-1.77-5.78-3.61-8.68-5.41-.61-.38-1.21-.76-1.85-1.08-1.77-.89-2.67-.35-2.79,1.67-.05.96-.02,1.92-.02,2.88,0,19.67.06,39.34-.06,59-.02,3.73.67,7.05,2.71,10.17,1.23,1.89.82,2.48-1.45,2.49-6.08.03-12.16.03-18.23.04-.97,0-1.97.08-2.45-1.37Z"/>
  <path d="m83.18,87.89c-2.16,0-4.32.05-6.47-.02-1.52-.04-1.83-.33-1.85-1.87-.05-3.91-.05-7.83,0-11.74.02-1.52.55-2,2.06-2.01,4.07-.04,8.15-.05,12.22,0,1.63.02,2.38.72,2.4,2.31.07,3.83.06,7.67.02,11.5-.01,1.37-.52,1.84-1.91,1.87-2.16.05-4.31.01-6.47.01,0-.02,0-.04,0-.05Z"/>
  <path d="m202.87,87.91c-2.07,0-4.15.04-6.22-.01-1.74-.05-2.42-.81-2.43-2.53-.01-3.34-.02-6.69-.01-10.03,0-2.14.88-3.05,3.02-3.06,3.75-.03,7.5-.04,11.25-.03,2.03,0,2.42.27,2.47,2.32.1,3.82.07,7.65-.02,11.47-.04,1.63-.37,1.86-2.08,1.9-1.99.05-3.99.01-5.98.01v-.03Z"/>
  <path d="m326.76,87.93c-1.92,0-3.83.02-5.75,0-1.96-.03-2.29-.29-2.31-2.18-.05-3.67-.06-7.35,0-11.02.03-1.89.61-2.45,2.45-2.47,3.75-.03,7.51-.03,11.26.02,2.03.03,2.59.57,2.62,2.55.06,3.59.08,7.19.06,10.78,0,1.72-.54,2.24-2.34,2.29-2,.06-3.99.01-5.99.01h0Z"/>
</svg>