<?xml version="1.0" encoding="UTF-8"?>
<svg id="Layer_1" data-name="Layer 1" xmlns="http://www.w3.org/2000/svg" viewBox="0 0 196.13 181.85">
  <path d="m162.32,32.32c-2.66-2-6.27-1.37-7.98,1.34-.31.49-.84,1.07-1.35,1.15-4.17.69-7.38,3.13-10.52,5.68-1.17.95-2.33,1.95-3.34,3.06-1.26,1.39-2.78,2.03-4.61,2.23-2.88.31-3.26.88-3.53,3.78-.26,2.76.71,4.98,2.51,6.97.69.76,1.25,1.65,1.91,2.44,3.36,4.02,3.29,8.55,2.09,13.3-.47,1.85-.81,3.75-1.03,5.65-.35,3.09-2.06,5.65-3.16,8.44-.64,1.63-2.34,2.32-3.82,3.12-.83.45-1.64.94-2.49,1.37-2.76,1.38-3.39,3.83-3.3,6.61.13,3.99.35,7.97.45,11.96.07,3.04-.03,6.08.02,9.11.04,2.33-.87,4.27-1.98,6.25-1.82,3.26-3.44,6.63-5.05,10-1.05,2.21-1.82,4.55-2.88,6.75-1.58,3.28-2.26,6.79-2.83,10.32-.58,3.62-.68,7.31-1.26,10.93-.86,5.43-1.34,10.95-3.22,16.18-.83,2.32-4.47,4.01-7.09,1.99-1.69-1.3-1.77-1.46-3.2-.25-2.55,2.17-7.27.97-8.35-3.01-.51-1.89-1.33-3.79-.51-5.86.16-.41-.14-1.07-.36-1.55-.79-1.69-1.14-3.43-1.34-5.29-.61-5.62-1.34-11.23-2.16-16.82-.43-2.94-2.01-5.5-3.14-8.21-1.27-3.06-2.36-6.2-3.74-9.2-1.02-2.22-2.3-4.32-3.61-6.38-1.07-1.69-1.62-3.48-1.59-5.43.07-4.23.26-8.47.3-12.7.04-3.67.1-7.36-.17-11.02-.2-2.73-2.45-4.12-4.54-5.47-.53-.34-1.09-.69-1.69-.89-2.64-.89-3.7-3.13-4.6-5.43-2.25-5.79-3.18-11.82-3.21-18.02,0-1.8.27-3.4,1.52-4.87,1.54-1.8,2.85-3.8,4.19-5.76,1.47-2.15,2.06-4.41.89-6.97-.57-1.26-1.4-1.96-2.7-1.95-2.27.01-3.9-1.09-5.41-2.65-3.34-3.46-7.06-6.48-11.69-7.93-2.06-.65-4.41-.44-6.63-.48-2.34-.04-3.75,1.55-5.34,3.04-2.23,2.09-2.25,4.78-2.55,7.39-.19,1.65-.03,3.35,0,5.03,0,.47-.03,1,.17,1.4,3.68,7.18,6.73,14.68,11.46,21.35,3.62,5.11,7.13,10.34,9.73,16.1,1.65,3.66,2.94,7.35,2.75,11.46-.14,3.2-1.07,6.16-2.76,8.76-.94,1.44-2.59,2.56-4.14,3.43-3.29,1.85-6.99,2.03-10.68,2.05-5.83.02-11.67.03-17.5.05-.08,0-.16,0-.24,0-2.36-.04-4.48.68-6.47,1.8-3.05,1.73-5.38,4.11-7.16,7.11-.64,1.08-1.44,2.1-2.3,3.02-.43.47-1.39,1.06-1.71.88-.58-.32-1.11-1.14-1.22-1.83-.43-2.74-.16-5.44,1.18-7.92,1.67-3.09,3.66-5.96,6.57-8.04,1.95-1.39,4.08-2.36,6.39-3.05,4.87-1.46,9.88-1.77,14.88-2.35,1.79-.21,3.58-.72,5.29-1.33,2.07-.74,3.01-2.04,2.68-4.19-.33-2.17-.89-4.42-1.9-6.34-1.81-3.44-4.14-6.57-6.61-9.61-3.54-4.36-6.87-8.88-10.26-13.36-3.22-4.26-6.12-8.72-8.28-13.62-1.34-3.04-2.83-6.05-3.74-9.23-1.2-4.2-1.57-8.54-1.4-12.97.16-4.03.75-7.93,2.18-11.67C10.65,13.11,16.55,6.21,25.63,2.42,30.9.22,36.43-.67,42.15.55c.16.03.32.07.47.06,4.06-.13,7.91,1.01,11.64,2.33,3.05,1.08,5.94,2.71,8.72,4.4,5.81,3.54,10.58,8.31,15.14,13.31,1.64,1.79,2.21,3.75,2.25,6.07.06,3.07,1.3,3.87,4.24,2.75,1.63-.62,3.15-1.52,4.75-2.19,2.05-.86,4.15-1.48,6.44-1.5,4.02-.04,7.98.07,11.7,1.87,1.64.79,3.3,1.58,5.01,2.22,1.69.63,2.78-.02,2.77-1.81-.02-4.37,2.3-7.45,5.2-10.31,3.67-3.62,7.44-7.1,11.79-9.94,4.24-2.77,8.71-4.86,13.63-6.12,3.88-.99,7.82-1.57,11.76-1.56,5.58,0,11.06,1.06,16.05,3.72,1.81.97,3.51,2.23,5.06,3.58,3.26,2.84,5.92,6.26,7.88,10.08,1.44,2.8,2.26,5.92,3.3,8.91,1.7,4.89,1.27,9.97.88,14.96-.21,2.72-1.16,5.44-2.1,8.04-2.85,7.9-7.13,15.01-12.32,21.6-4.07,5.18-8.16,10.34-12.04,15.66-1.81,2.48-3.27,5.26-4.63,8.03-.68,1.39-.97,3.06-1.07,4.62-.13,2.31,1.53,3.98,4.12,4.51,1.33.27,2.67.5,4.02.68,3.72.5,7.45.94,11.16,1.45,3.75.52,7.11,2.04,10.2,4.19,3.44,2.38,5.67,5.59,7.14,9.52.83,2.22.93,4.35.62,6.56-.22,1.63-1.25,2.04-2.51.96-.95-.82-1.83-1.81-2.46-2.89-3.8-6.48-9.54-9.63-16.93-9.77-5.92-.11-11.84.18-17.75,0-2.59-.08-5.25-.65-7.71-1.49-1.9-.65-3.49-2.06-4.54-3.99-1.36-2.5-2.35-5.05-2.17-7.95.04-.72.03-1.44-.03-2.16-.41-4.56,1.52-8.43,3.74-12.13,4.42-7.35,9.11-14.54,13.52-21.89,2.24-3.74,4.3-7.61,5.6-11.81,1.45-4.68,1.97-9.34-.45-13.9-1.18-2.22-3.08-3.58-5.43-4.3-.88-.27-1.97-.42-1.61-1.56.33-1.05,1.41-.78,2.28-.49.53.17,1.04.43,1.58.53.78.14,1.21-.24,1.21-1.06Zm-2.04-4.63c2.15.73,4.32,1.14,6.75.5-1.98-1.58-4.58-1.69-6.7-.43-1.19.2-2.51-.15-3.52.79,1.25.1,2.63.68,3.47-.86Zm-80.17,104.11c.32,1.62.67,3.22,1.79,4.53.37,1.3.6,2.65,1.12,3.89,2.27,5.47,3.86,11.11,4.37,17.03,0,.11.18.21.34.39.32-.5.62-.99,1.11-1.76.67,1.57.44,2.68-.11,3.9-.78,1.75-.84,3.59-.07,5.5.65-.71,1.44-1.5,1.44-2.28,0-2.53-.15-5.08-.49-7.58-.36-2.66-1.09-5.27-1.51-7.93-.35-2.22-.18-4.4.83-6.53.83-1.73-.26-3.37-2.05-3.38-.94,0-1.93.44-2.8.24-.81-.18-1.49-.94-2.22-1.45.32-1.88-.48-3.3-1.83-4.5-.38-2.07-.71-4.16-1.2-6.2-.09-.39-.78-.74-1.26-.89-.26-.08-.95.31-.95.49,0,.48.2.98.42,1.43.72,1.48,1.46,2.95,2.24,4.39.16.3.53.48.81.72Zm74.88-55.13c-.6.47-1.38.83-1.78,1.43-2.57,3.8-4.08,7.98-4.02,12.63.01.89.15,1.77.23,2.66.21,0,.43-.02.64-.02.05-1.13.09-2.27.14-3.4.05-1.03-.15-2.16.21-3.07,1.16-2.92,2.1-5.95,4.04-8.52.34-.45.32-1.17.47-1.77,1.11.17,1.03-.44.56-1.25-.17.44-.33.88-.5,1.32Zm9.03-16c.53-.43,1.3-.75,1.55-1.31.97-2.16,1.88-4.35,2.61-6.6.96-3,.97-6.14.75-9.24-.07-1.04-.63-2.04-.97-3.06-.19.03-.38.06-.57.1.07,1.14.13,2.28.21,3.42.06.87.31,1.76.19,2.6-.47,3.53-.79,7.09-2.42,10.37-.59,1.18-.87,2.52-1.28,3.79q-.87.98-.16,1.89c.04-.75.06-1.36.09-1.97Zm-118.02,50.04c-.71.06-1.47,0-2.13.21-3.5,1.12-7.08.88-10.67.81-4.07-.08-8.14-.02-12.21.01-.78,0-1.69-.17-2.38.92.72.09,1.18.19,1.64.19,3.99-.03,7.98-.07,11.97-.12,3.35-.04,6.7-.07,10.05-.17,1.51-.04,2.93-.37,3.68-1.93.74.09,1.52.32,2.27-.54-1.1-.52-1.78-.39-2.22.6Zm-15.08-50.57c.19-.86.49-1.74-.21-2.43-.18.05-.35.09-.53.14l.76,2.27c1.29,2.45,2.49,4.96,3.9,7.34,2.42,4.07,4.97,8.07,7.51,12.07.28.44.81.73,1.22,1.08.22-.73.14-1.2-.1-1.54-2.02-2.9-3.51-6.11-5.65-8.96-1.89-2.5-3.21-5.43-4.72-8.21-.5-.92-.86-1.9-2.17-1.77Zm67.32-16.83c-.3,0-.59.02-.89.03-.09-1.57-.25-3.13-.26-4.7,0-2.64.09-5.27.14-7.91.02-.91-.14-1.75-1.02-2.28-1.62-.98-7.84.84-8.7,2.55-.92,1.84-1.35,2.03-3.29,1.59-1.24-.28-2.49-.57-3.76-.71-.68-.07-1.66-.09-2.04.31-2.07,2.17-4.3,4.43-4.42,7.59-.1,2.67.46,5.37.75,8.06.19,1.74.66,3.49.6,5.22-.09,2.46-.54,4.91-.87,7.36-.06.46-.26.93-.48,1.35-.41.79-1.11,1.36-1.93.84-.47-.3-.68-1.12-.83-1.75-.08-.32.29-.73.37-1.11.22-.98-.41-1.66-1.29-1.27-.84.38-1.69.92-2.29,1.61-.65.75-1.4,1-2.06.51-.43-.32-.58-1.21-.58-1.84,0-.7.31-1.4.48-2.1-.19-.09-.37-.18-.56-.28-.92,1.16-1.94,2.25-2.72,3.48-.97,1.53-.78,1.52.6,2.93,1.18,1.21,3.02,2.07,2.98,4.12-.02,1.49.89,2.12,2,2.67.53.26,1.09.46,1.9.8-1.81,1-2.02,2.43-2.12,4.01-.12,1.9-.48,3.78-.68,5.67-.09.83-.01,1.67-.01,2.57q2.01-.53,3.48.46c1.4.95,2.07.86,2.9-.52.32-.53.52-1.17.65-1.79.51-2.34.97-4.7,1.55-7.49.49,1.42,1.1,2.44,1.15,3.49.11,2.58,1.15,4.77,2.37,6.94.78,1.38,1.55,2.76,2.31,4.11.19-.25.49-.62.95-1.22.54,1.31.37,2.3-.02,3.25-.42,1.02-.54,1.94.15,2.93,1.58,2.26,3.01,4.63,4.64,6.85.8,1.1,1.97.97,2.76-.25.77-1.18,1.44-2.44,1.98-3.74.82-1.97,1.76-2.36,3.6-1.23,1.43.88,2.95.79,4.3.12,1.9-.94,3.07-.7,3.9,1.21.35.8.61,1.64.94,2.45.74,1.79,1.63,2.1,3.3,1.01.72-.47,1.41-1.06,1.96-1.72.74-.9,1.26-1.98,2-2.88.88-1.07,1.2-2.22.95-3.56-.21-1.08-.32-2.17.38-3.17.52.35.91.62,1.33.9.98-2.52,1.39-5.02,2.83-7.21.83-1.26.98-3,1.31-4.55.26-1.25.28-2.54.49-3.8.06-.38.41-.71.92-1.55.17,1.14.27,1.73.34,2.32.21,1.98.34,3.98.64,5.95.22,1.43.75,2.79,2.25,3.49.46-.41.86-.95,1.4-1.23,1.42-.75,3.32-.16,3.31,1.07,0,1.3.17,2.73-.93,3.83-.32.32-.44.84-.84,1.65.95-.45,1.45-.67,1.93-.93,1.65-.9,1.86-1.73,1.13-3.51-.32-.78-.49-1.66-.52-2.5-.15-3.75-.76-7.39-2.14-10.74-.91-.23-1.56-.4-2.22-.56,1.02-.66,2.05-.99,3.11-1.22,1.26-.26,1.87-.97,2.16-2.23.22-.97.66-1.94,1.22-2.76.78-1.14,1.76-2.15,2.79-3.37-1.15-1.77-2.07-3.88-4.18-5.19-.55,1.51.99,3.38-1.08,4.47-1.23-.77-2.49-1.74-4.24-.85-.12.43-.22.98-.45,1.47-.15.32-.51.79-.73.77-.4-.04-.79-.37-1.13-.64-.17-.14-.27-.41-.3-.64-.47-3.07-1.26-6.14-1.27-9.21,0-3.16.57-6.36,1.25-9.47.52-2.36.04-4.22-1.48-5.96-.58-.66-1.15-1.33-1.62-2.07-1.05-1.65-2.46-2.06-4.31-1.62-1.39.33-2.83.49-4.26.62-1.05.1-1.78-.32-2.15-1.46-.19-.58-.77-1.22-1.33-1.47-1.53-.66-3.12-1.25-4.74-1.64-2.03-.5-3.24.62-3.15,2.71.08,1.68.32,3.36.22,5.03-.15,2.52-.54,5.02-.82,7.52Zm-8.85,64.89c-.41-.94-.89-1.93-1.29-2.94-.41-1.04-.57-2.21-1.14-3.13-1.87-3.03-3.88-5.97-5.82-8.96-.43-.65-.85-1.32-1.2-2.01-.86-1.68-1.75-3.36-2.49-5.09-.4-.92-.85-1.65-1.89-1.23-.92.37-1.2,1.33-.98,2.23.24.99.81,1.89,1.1,2.88.16.55.29,1.35.02,1.73-.74,1.02-.36,1.68.27,2.54,1.22,1.68,2.15,3.51,2.25,5.67.02.46.34.89.42,1.36.45,2.62.87,5.25,1.3,7.88.01.07-.05.15-.1.3-.18.04-.39.08-.61.12-.28.06-.56.11-1.17.24.91,7.8,2.14,15.31,6.65,22.03.53,0,1.09,0,1.64,0,1.81.02,2.16.28,2.71,2.01.17.53.17,1.19.49,1.58.69.83.66,2.42,2.34,2.37,0-1.88.42-3.83-.09-5.49-1.08-3.57-.56-7.13-.59-10.7,0-.35.14-.7.22-1.05.48,1.93.65,3.88,2.6,4.98.22.12.3.56.35.87.22,1.33.53,2.66.58,4,.13,3.19.12,6.39.2,9.59.04,1.58.35,3.09,1.78,4.48.39-3.37.04-6.54.65-10.15,1.78,1.79,1.14,3.57,1.36,5.12.22,1.57.3,3.17.5,5.28.47-.75.66-.93.7-1.13.5-3.06,1.1-6.09.98-9.25-.16-4.09.58-8.1,2.14-11.92.98-2.41,1.49-4.85,1.04-7.47-.16-.94-.11-1.91-.11-2.87,0-.88.49-1.31,1.34-1.34.97-.04,1.58.39,1.5,1.4-.15,1.98-.12,4.03-.66,5.91-.77,2.72-1.22,5.42-1.28,8.24-.04,2.13-.51,4.25-.74,6.37-.18,1.67-.94,3.39.15,5,1.06-.03,1.34-.63,1.53-1.38.3-1.16.67-2.29.99-3.44.28-.99.78-1.87,1.87-1.91,1.66-.05,2.31-1.2,3-2.38,1-1.7,1.98-3.42,3-5.11,1.4-2.35,2.58-4.73,2.25-7.62-.14-1.26.01-2.56.14-3.83.12-1.2.4-2.36-.7-3.33-.22-.19-.31-.84-.16-1.11.96-1.71.61-3.59.76-5.4.24-2.82.81-5.5,2.66-7.77.33-.41.67-1.06.58-1.51-.37-1.83.23-3.47.73-5.15.11-.37.23-.86.09-1.17-.26-.6-.63-1.45-1.11-1.56-.51-.12-1.41.33-1.76.81-.54.75-.73,1.75-1.12,2.62-.91,2.02-1.6,4.19-2.83,6.01-2.54,3.76-4.94,7.57-6.73,11.76-.28.65-.68,1.28-1.16,1.79-1.05,1.13-2.09,1.11-2.58-.34-.95-2.84-1.47-5.81-1.37-8.84,0-.08.06-.15.08-.22.33-1.37-.13-2.31-1.25-2.55-1.32-.28-2.07.12-2.32,1.67-.24,1.48-.13,3.01-.2,4.52-.04.81.28,1.73-.61,2.38-1.2-.7-.96-1.82-1.03-2.8-.11-1.43-.09-2.88-.29-4.3-.16-1.18-1.01-1.61-2.34-1.41-1.13.18-1.3.91-1.22,1.93.08,1.09,0,2.19-.08,3.28-.1,1.19-.33,2.37-.43,3.57-.22,2.55-.64,3-3.5,3.41ZM155.42,13.42c.23-.04.46-.08.69-.12.61,1.09,1.24,2.16,1.82,3.27.37.7.89,1.34,1.65,1,.64-.29,1.29-.93,1.55-1.58.28-.7.07-1.58.15-2.37.05-.48.23-.95.41-1.68,2.03,2.07,1.75,4.78,2.91,6.9.46-.31.76-.65,1.12-.74,1.97-.46,2.5-1.72,2.22-3.58-.09-.63-.23-1.43.96-1.97.58,2.83,1.13,5.48,1.7,8.28.78-.41,1.31-.9,1.9-.96,1.85-.2,2.3-1.43,2.49-2.97.07-.53.29-1.04.44-1.57.73,1.74,1.07,3.36,1.44,4.98.6,2.61.61,2.69,3.17,2.7,1.27,0,1.71.64,1.88,1.69.08.47-.02.98.11,1.43.16.58.32,1.34.75,1.63.71.49,1.31-.06,1.77-.7.08-.11.41-.05.88-.1,0,.7.04,1.31,0,1.91-.08,1.12-.24,2.23-.31,3.34-.05.83.04,1.59,1.06,1.88,1.27.36,1.15,1.3.91,2.32-.38,1.62-.67,3.26-1.07,4.87-.1.39-.44.95-.76,1.02-1.14.25-1.03,1.1-1.04,1.87-.02,2.71-.01,5.42.01,8.14,0,.41.16.82.32,1.59,2.33-4.29,3.84-8.48,4.34-12.84.7-6.02.65-12.09-1.75-17.87-1.85-4.44-4.5-8.39-7.62-11.98-3.26-3.75-7.48-6.1-12.26-7.45-.98-.28-1.94-.9-2.91-.92-4.63-.09-9.27-.05-13.9,0-.61,0-1.23.28-1.82.48-.81.27-1.6.61-2.4.89-.75.26-1.64.3-2.24.75-1.11.83-2.28,1.02-3.6,1.03-.58,0-1.5.21-1.69.61-.88,1.83-2.56,1.96-4.19,2.31-.6.13-1.56.34-1.67.72-.53,1.78-1.96,2.28-3.41,2.9-.47.2-.81.71-1.21,1.07-.99.9-1.9,1.91-2.99,2.66-1.28.88-2.45,1.72-2.78,3.39-.09.46-.55.91-.95,1.24-.97.78-2.12,1.36-2.98,2.23-1.18,1.2-1.73,2.67-.93,4.37.77,1.65,1.26,3.49,3.68,3.47.75,0,1.49.5,2.25.73,1.6.48,3.17,1.14,4.89.39,1.31-.58,1.69-1.23,1.32-2.62-.17-.64-.37-1.28-.68-2.34,1.47,1.27,2.56,2.2,3.63,3.12,2.19-2.49,1.82-5.01.78-7.6,2.54-.14,2.04,3.37,4.59,3.23.4-1.02,1.1-2.09,1.18-3.21.09-1.17-.42-2.39-.66-3.6,1.62-.23,1.4,1.23,2.06,1.79.73.62.67,2.1,2.05,1.97,1.8-1.57,1.1-3.84,2.06-5.88.93,1.54,1.86,3.08,2.81,4.65.7-1.23,1.34-2.2,1.82-3.23.5-1.06.85-2.2,1.26-3.3,1.42,1.02,1.27,3.13,2.97,3.61,1.73-1.41,3-2.86,1.83-5.25Zm-89.24,13.51c.29.15.57.31.86.46-.16.57-.28,1.15-.47,1.7-.8,2.27-.26,3.11,2.18,3.17.86.02,1.8-.02,2.59-.33,1.52-.59,2.91-.59,4.19.38.54-.63,1.02-1.14,1.44-1.69,2.28-3.01,2.31-7.57-1.87-9.47-1.06-.48-1.65-1.2-2-2.22-.41-1.2-1.14-2.11-2.35-2.56-1.61-.59-2.69-1.63-2.88-3.3-1.84-.54-3.41-1.1-4.46-2.74-.85-1.33-2.25-1.99-3.93-1.81-.54.06-1.09,0-1.79,0-.25-1.95-1.34-2.77-3.25-2.67-.65.03-1.34-.42-2-.66-.58-.21-1.14-.47-1.73-.67-1.26-.44-2.52-.86-3.78-1.28-.52-.17-1.05-.45-1.57-.45-4.47,0-8.94.03-13.41.07-.47,0-.96.11-1.41.26-5.09,1.68-9.86,3.83-13.77,7.75-3.99,4-6.64,8.8-8.41,13.94-1.47,4.29-1.7,8.91-1.48,13.59.22,4.6,1.56,8.73,3.18,12.88.37.94.97,1.8,1.47,2.7.18-.07.36-.14.54-.21-.12-1.82-.33-3.64-.33-5.46,0-1.88.2-3.76.32-5.72-1.13,0-1.78-.13-1.99-1.18-.39-1.93-.9-3.85-1.47-5.74-.23-.79,0-1.25.64-1.55.49-.22,1.03-.32,1.87-.56-.2-1.24-.26-2.42-.61-3.51-.38-1.17-.63-2.24.12-3.63.84.7,1.52,1.27,2.21,1.84,2.04-1.31.59-3.79,1.91-5.16,1.41-.13,2.74-.26,4.2-.4.14-1.43.14-2.71.42-3.93.27-1.21.82-2.36,1.43-4.05.24.92.36,1.22.39,1.53q.29,2.93,3.06,3.76c.36.11.75.13,1.3.21,1.04-2.48.06-5.52,2.55-7.81v4.81c1.36.58,2.42,1.03,3.65,1.55.31-1.3.41-2.53.9-3.56.49-1.03.11-2.67,1.86-3.07.77,1.08.29,2.2.28,3.27-.01,1.12.68,2.02,1.75,2.2,1.17.19,1.5-.61,1.72-1.54.29-1.22.79-2.31,2.26-3.08-1.13,2.8.38,4.46,2,6.09,1.81-1.1,1.25-3.7,3.56-4.77-.67,3.13.89,5.16,2.5,7.23,1.09-1.86,2.1-3.58,3.12-5.31.4.93.33,1.7.3,2.47-.02.63-.15,1.31.04,1.89.27.84.01,2.27,1.3,2.22.6-.02,1.21-1.06,1.73-1.71.5-.61.87-1.34,1.37-1.95.21-.26.62-.36,1.36-.75-1.33,2.85-.98,5.29-.31,7.84,2.55-.52,2.99-3.49,5.56-4.37-.69,1.75-1.54,3.03-1.61,4.34-.07,1.46.86,2.78,2.32,4.07.85-1.17,1.63-2.27,2.42-3.36Zm-45.38,31.61c.27-1.33.5-2.53-.69-3.39-.15-.11-.13-.44-.21-.67-.34-.95-.68-1.9-1.03-2.84-.24-.66-.62-1.31-.72-1.99-.44-3.14-1.36-6.23-1.09-9.46.02-.28-.17-.57-.26-.84-.27.05-.45.02-.55.11-.24.21-.47.44-.63.71-2.61,4.31-1.98,8.88-1,13.45.38,1.78.99,3.51,1.46,5.27.2.77.13,1.65.47,2.34,1.72,3.39,3.16,6.93,5.68,9.87,2.27,2.64,4.47,5.34,6.67,8.04.8.98,1.44,2.11,2.29,3.04,2.92,3.22,4.87,7.02,6.87,10.83,1.13,2.16,1.35,4.35,1.28,6.67-.02.58.14,1.16.23,1.83,2.57-.37,4.01-2,5.44-3.57,1.12-1.22.85-2.18-.68-2.99-.34-.18-.7-.31-.65-.29-.95-3.06-1.78-5.76-2.64-8.45-.09-.28-.36-.52-.58-.73-1.57-1.45-2.42-3.43-3.5-5.19-.78-1.27-1.16-2.64-2.67-3.38-.51-.25-.67-1.2-1.03-1.81-.87-1.45-1.73-2.91-2.68-4.3-.23-.34-.8-.49-1.24-.66-.49-.19-1-.31-1.43-.45.16-.9.29-1.65.42-2.34q-2.77-1.06-2.4-3.43c-.93-.49-1.89-.99-2.95-1.55.39-.78.74-1.47,1.11-2.22-1.11-.55-2.1-1.03-3.3-1.63Zm147.2,10.98c-.99.78-2.73.41-2.83,2-.06.97-.65,1.37-1.24,1.88-.35.31-1,.57-1.03.9-.16,1.78-1.51,2.64-2.54,3.83-1.23,1.41-1.59,3.47-3.3,4.64-.47.33-.38,1.37-.75,1.95-1.71,2.61-2.98,5.38-3.26,8.52-.1,1.15-.6,1.75-1.76,1.85-.3.02-.58.19-.85.28-.77,1.95.77,2.94,1.71,3.92,1,1.05,2,2.6,4.17,2.06.04-.68.05-1.38.12-2.07.09-.94.22-1.89.34-2.83.38-2.85,2.11-5.11,3.35-7.58,2.7-5.39,7.09-9.53,10.63-14.31,2.31-3.11,4.8-6.11,6.79-9.42,1.62-2.68,2.99-5.62,2.82-8.96-.05-.89.1-1.66.86-2.36.42-.39.46-1.25.55-1.91.08-.54-.24-1.24,0-1.62,1.24-1.9.6-3.87.36-5.81-.23-1.92-1.61-4.63-2.84-5.71-.53,1.72-.2,3.4-.42,5.02-.3,2.27-.3,4.73-1.24,6.73-.79,1.69-1.7,3.08-.79,4.94-.96.28-1.7.5-2.56.75,0,.96.29,1.98-.08,2.63-.38.67-1.4.98-2.24,1.51.28.69.58,1.4.89,2.17-.92.46-1.84.91-2.74,1.36v2.48c-.83.35-1.6.68-2.43,1.03.11.8.2,1.48.29,2.12Zm-67.91,107.36c2.43-.63,3.72-1.74,4.34-3.65.16-.48.71-.83,1.08-1.24l.47.26c-.24,1.42-.48,2.83-.72,4.25.15.03.3.06.45.09.54-1.72,1.45-3.29,1.4-5.24-.05-1.89,1.57-3.65.63-5.71-.22.11-.43.15-.47.25-.4,1.2-.83,2.4-1.14,3.63-.24.95-.72,1.32-1.7,1.22-2.27-.23-2.99-.91-3.31-3.23-.08-.55-.11-1.13-.3-1.64-.71-1.88-.47-3.75-.21-5.67.33-2.53.46-5.09.61-7.64.02-.38-.29-.77-.66-1.69-.98,1.95-1.73,3.41-2.5,4.95-1.49-1.15-.78-3.35-2.86-4.24-.18.93-.58,1.7-.42,2.34,1.11,4.44.61,8.9.25,13.36-.12,1.48-.45,2.56-2.27,2.8-1.49.2-1.75,1-1.28,2.46.33,1.05.62,2.11.95,3.24.44.11.9.24,1.36.34,2.76.59,2.75.58,3.25-2.13.12-.65.38-1.27.58-1.91l.56-.03c.63,1.6,1.26,3.2,1.91,4.85Zm44.01-80.65c2.53-.77,2.96-.47,3.01,1.66.01.56-.07,1.12,0,1.68.06.54.08,1.34.42,1.57,1.44.94,1.75,2.6,2.7,3.82.52.67,1.24,1.45,1.99,1.63,2.6.61,4.77,2.56,7.62,2.36.28-.02.62.17.87.35.8.58,1.61.57,2.48.16.25-.12.59-.12.88-.11,2.62.11,5.24.35,7.86.34,4.81-.03,9.28,1.07,13.43,3.51.95.55,1.64,1.11,1.7,2.36.04.69.52,1.45.99,2.02,1.21,1.46,2.52,2.84,3.8,4.25.55.61,1.13,1.19,1.69,1.78.19-.08.37-.17.56-.25-.06-.65.02-1.35-.19-1.94-2.47-7.09-7.6-11.41-14.66-13.36-2.96-.82-6.14-.97-9.23-1.14-3.91-.22-7.74-.78-11.43-2.06-1.95-.68-3.86-1.49-5.69-2.42-2.19-1.11-3.88-2.88-4.66-5.2-.59-1.78-.67-3.72-1-5.59-.09-.51-.28-1-.55-1.95-1.68,2.06-2.02,4.12-2.59,6.54ZM2.61,123.45c.4-.33.75-.52.96-.81,1.8-2.5,3.72-4.89,6.2-6.78.29-.22.51-.65.58-1.01.49-2.74,2.88-3.28,4.89-3.99,3.58-1.27,7.37-1.15,11.12-1.2,4.29-.05,8.6.48,12.85-.73,1.03-.29,1.91-.54,2.64-1.38.55-.63,1.31-1.41,2.04-1.48,3.28-.32,3.52-3.33,4.9-5.29.39-.55.45-1.74-.51-2.03-.49-.15-1.41.26-1.79.71-3.12,3.7-7.47,5.2-11.89,6.13-5.13,1.08-10.39,1.56-15.61,2.16-2.49.29-4.81.97-7.02,2.09-4.42,2.25-7.52,5.71-9.41,10.27-.43,1.04-.58,2.11.06,3.35Zm108.01,17.58c2.21.23,3.09-.78,2.61-3.72-1.25.62-2.41,1.2-3.58,1.79-.58-.18-1.59-.85-2.04-.58-1.02.61-.65,1.81-.39,2.83.04.15.13.29.21.43,1.19,2.19.96,4.46.33,6.72-.89,3.16-1.83,6.29.54,9.26.17.21.21.53.46,1.2.65-6.22,1.25-11.97,1.87-17.92Zm-35.99-22.02c.1-.95.1-2.56.47-4.09.4-1.66.53-3.21.27-4.93-.36-2.35-.39-4.76-.45-7.14-.02-1.02.38-1.86,2.02-1.06-1.06-1.64-.12-3.74-2.12-4.89-.83,1.22-1.03,2.44-.79,3.71.26,1.37-.05,2.63-.22,3.97-.36,2.91-.44,5.88-.28,8.81.11,2.09.79,4.15,1.1,5.62Zm104.19-6.32c0-.16,0-.33,0-.49-2.06-.16-4.12-.44-6.18-.46-4.07-.03-8.14.13-12.21.12-2.54,0-5.11.21-7.57-.74-.28-.11-.67.08-1.01.14-.01.19-.03.37-.04.56,1.43.31,2.85.85,4.29.9,3.43.12,6.86,0,10.29-.02,4.14-.01,8.29,0,12.43,0Zm-75.07,54.34c.15-1.11.27-1.71.31-2.31.12-2.21.15-4.4.8-6.59.52-1.75.46-3.7-.26-5.6-.61.55-1.18,1.14-1.26,1.8-.39,2.91-.7,5.83-.91,8.76-.09,1.23-.06,2.54,1.32,3.95Zm32.96-125.63c-.21.02-.52-.05-.66.07-2.03,1.73-3.89.61-5.67-.41-.8-.46-1.42-1.26-2.08-1.94-1.47-1.54-2.89-3.13-4.4-4.64-.27-.27-.85-.25-1.28-.36.59,1.45,1.24,2.68,2.22,3.51,2.35,2,4.83,3.83,7.3,5.68.9.67,3.43.53,4.31-.11.65-.48.99-1.03.26-1.79Zm-45.14,110.96c-1.23,4.87.22,9.53.93,14.56,1.33-2.32.82-10.27-.93-14.56Zm30.19-35.23c.91-3.41.82-10.74-.24-14.06-.15,1.87-.05,3.39-.44,4.78-.88,3.13-.57,6.11.68,9.28ZM29.04,39.1c-1.72,2.39-2.09,4.9-1.78,7.59.29,2.53-.38,5.23,1.55,7.63.75-1.05.68-2.01.26-3-.25-.58-.67-1.14-.71-1.73-.19-2.86-.47-5.73.44-8.55.2-.61.17-1.29.24-1.94Zm127.39,35.33c4.65-5.39,6.18-8.01,6.14-10.32-1.43,1.2-5.69,8.16-6.14,10.32ZM38.79,32.42c-.46-1.34-1.56-1.42-2.55-1.37-.82.04-1.68.36-2.38.78-.31.19-.45.96-.36,1.41.05.23.83.51,1.2.42,1.37-.33,2.7-.8,4.09-1.24Zm26.38,9.51c-.79.14-1.45.05-1.71.34-1,1.12-1.7.74-2.54-.19-.62-.68-1.36-1.42-2.48-.86,1.2,3.13,4.13,3.59,6.73.72Zm-.65,42.78c.74,2.08,2.2,3.1,4.58,3.07-1.14-1.71-1.85-3.69-4.58-3.07Zm55.72,17.55c1-.99,1.78-1.43,1.98-2.05.21-.65-.06-1.51-.3-2.22-.05-.16-1.16-.23-1.22-.1-.43.97-.78,1.99-1.03,3.03-.07.3.28.7.56,1.33Zm-3.86,27.74l.3.09c.7-1.17,1.46-2.32,2.09-3.53.58-1.13.26-1.57-1.39-1.93-.33,1.79-.66,3.58-1,5.37Zm-55.26-55.4c0,.8-.13,1.58.05,2.29.09.37.78.91,1.08.85.4-.09.89-.64.99-1.08.26-1.08-.34-1.63-2.12-2.05Zm73.22-1.8c1.71-.54,1.67-.54,1.67-1.62,0-2.28.04-4.56.04-6.84,0-.24-.2-.48-.3-.72-.54,2.99.42,6.03-1.41,9.18Zm.11,1.32c-1.78,1.7-1.82,2.56-.43,4.18,1.3-1.19.75-2.52.43-4.18ZM34.21,27.64c.04.21.08.42.11.64,1.93.33,3.87.66,5.8.98-.16-.57-.46-1.02-.8-1.07-1.31-.18-2.65-.09-3.8-1-.19-.15-.86.29-1.3.45Zm-6.53.82c1.57.07,2.86.23,3.97-1-2.7-.94-2.91-.89-3.97,1Zm96.63,28.02c1.97-1.48,2.55-2.66,2.18-4.57-.76,1.59-1.39,2.92-2.18,4.57ZM30.85,35.23c-.39.15-.67.24-.93.37-.73.35-1.46.76-1.23,1.72.06.25.78.61.87.54.55-.47,1.05-1.03,1.47-1.62.12-.17-.08-.57-.16-1Zm98.03,17.42v-4.93c-.19,0-.38,0-.57,0-.14,1.62-.28,3.24.57,4.93Zm36.09-16.28c.51.73,1.02,1.47,1.71,2.47.6-2.58.57-2.63-1.71-2.47Zm-110.58,1.08c-.04.37-.2.98-.09,1.04.74.37,1.28,1.41,2.4.93q-.68-1.56-2.3-1.96Zm12.96,14.7c.18,0,.36,0,.54,0,.51-1.26.36-2.47-.54-3.66v3.66Zm32.92,127.4h2.81c.04-.18.08-.36.13-.54-.8-.32-1.59-.63-2.53-1.01-.14.53-.23.88-.4,1.55Zm42.98-142.82c.91-.91,2.23-1.05,1.7-2.77-.88.66-1.95.91-1.7,2.77Zm-3.89,3.17q1.94-1.32,1.43-2.46c-.99.51-1.89,1.01-1.43,2.46Zm-46.89,139.27q2.35.52,2.06-1.03c-.7.35-1.38.69-2.06,1.03ZM148.86,31.21c-.66.83-1.72,1.03-1.05,2.4.53-.71,1.78-.7,1.05-2.4Zm2.2-1.13q1.59.91,3.04-.53c-1.22.21-1.95.34-3.04.53Zm-99,5.65c.14-.87.22-1.57-.79-1.63-.23-.01-.66.27-.67.44-.08.87.43,1.22,1.46,1.18Zm37.71,133.29q-.04-1.73-1.16-1.6c.3.42.57.78,1.16,1.6Zm-20.29-116.18c.18-.02.35-.04.53-.05-.05-.72-.09-1.44-.14-2.16-.13,0-.26,0-.39,0v2.2Zm-8.98,17.54c.18-.03.37-.06.55-.09-.07-.7-.14-1.4-.27-2.62-.86,1.29-.68,2.01-.29,2.71Zm-10.45,37c-.13-.07-.26-.14-.38-.2-.23.4-.46.79-.69,1.19.14.08.27.15.41.23.22-.41.44-.81.66-1.22Zm18.07-68.65c.21.22.42.43.63.65.31-.36.63-.72.94-1.08-.15-.14-.3-.27-.45-.41-.37.28-.75.56-1.12.84Zm-55.06.73c-.17,0-.33,0-.5,0v1.58c.13,0,.26,0,.39,0,.03-.53.07-1.05.1-1.58Zm31.42,44.07c.18-.02.36-.05.55-.07l-.22-1.14c-.13.02-.27.04-.4.06.03.39.05.77.08,1.16Zm-.48-53c-.02-.22-.04-.43-.07-.65-.4.07-.81.14-1.21.22l.06.43h1.22Zm4,2.94c.16-.16.32-.31.48-.47-.25-.26-.49-.52-.74-.79-.18.18-.36.36-.55.54.27.24.54.48.8.72Zm96.55,70.82c.09,0,.18,0,.27,0v-1.4c-.09,0-.18,0-.27,0v1.4Z"/>
  <path d="m87.83,66.99c.28,1.05.47,2.14.85,3.15,1.04,2.73,2.26,5.4,3.2,8.16.45,1.31.43,2.78.63,4.2-1.16.03-1.37-.83-1.71-1.5-1.05-2.08-2.31-3.85-4.49-5.02-2.1-1.12-2.13-1.75-1.34-3.9.44-1.2.79-2.42,1.26-3.61.23-.6.63-1.13.95-1.69.22.07.43.14.65.21Z"/>
  <path d="m103.37,81.97c1.23-5.5,3.51-10.31,5.04-15.54,1.13.56,1.23,1.48,1.46,2.25.34,1.15.61,2.32.82,3.5.18,1.06.06,2.19-.91,2.8-1.87,1.17-2.73,3.03-3.76,4.81-.52.9-.78,2.15-2.64,2.17Z"/>
  <path d="m97.54,79v-24.21c1.57,3.05,1.81,6,1.57,9.11-.19,2.53-.07,5.08-.07,7.62,0,1.91.09,3.83.07,5.74,0,.78-.07,1.65-1.57,1.74Z"/>
  <path d="m112.38,53.17c-2.42.6-4.07-.4-5.79-.83-.33-.08-.72-.93-.67-1.37.25-2.05.99-3.9,2.54-5.49,1.34,2.63,2.56,5.02,3.91,7.69Z"/>
  <path d="m87.75,45.85c1.67,1.26,1.61,3.18,2.38,4.69.06.13.04.32.01.47-.27,1.61-1.85,1.56-2.87,2.21-.85.54-1.87.65-2.68-.02-.29-.24-.4-1.08-.2-1.45,1.02-1.95,2.16-3.83,3.36-5.9Z"/>
  <path d="m97.72,117c1.38.19,1.54,1.09,1.45,1.97-.16,1.47.64,3.21-1.04,4.33-1.51-1.5-1.67-4.09-.41-6.3Z"/>
  <path d="m89.52,110.36c.79.69,1.33.92,1.4,1.25.41,1.94.36,3.88-.08,6.2-1.94-2.28-1.72-4.53-1.32-7.45Z"/>
</svg>