<?xml version="1.0" encoding="UTF-8"?>
<svg id="Layer_1" data-name="Layer 1" xmlns="http://www.w3.org/2000/svg" viewBox="0 0 164.25 30.66">
  <path d="m52.78,29.61c-.39,1.03-1.31,1.03-2.19,1.04-1.92,0-3.84.05-5.75-.06-.63-.04-1.39-.36-1.78-.81-.18-.21.25-1.21.65-1.59.66-.63.8-1.31.8-2.14,0-2.08.07-4.15.02-6.23-.02-.78-.18-1.6-.5-2.3-.69-1.56-.53-2.95-.06-4.6,1.03-3.62,1.33-7.34-.48-10.91-.23-.46-.31-1-.5-1.65.63-.15,1.07-.35,1.5-.34,5.35.03,10.72-.12,16.06.2,5.12.3,10.28,4.39,9.94,10.1-.14,2.31-1.28,4.08-2.85,5.58-2.92,2.78-2.87,2.86-.25,5.87,2.06,2.37,4.27,4.67,5.65,7.53-.59,1.1-1.53,1.23-2.5,1.26-1.68.04-3.36.08-5.03.05-1.63-.03-1.74-.22-1.86-1.91-.04-.52-.22-1.1-.53-1.51-1.68-2.21-3.39-4.4-5.17-6.53-1.03-1.24-4.2-1.94-5.58-1.22-.46.24-.9.95-.93,1.47-.11,1.91-.2,3.85.02,5.74.12,1.02.86,1.97,1.33,2.97Zm3.02-15.91c.72,0,1.46.13,2.14-.03,1.45-.33,3.15-.43,4.23-1.28,2.39-1.9,1.47-5.14-1.5-6.05-2.49-.76-5.03-.68-7.57-.41-1.12.12-1.72.73-1.75,1.87-.01.48-.02.95-.02,1.43,0,4.52.05,4.58,4.47,4.47Z"/>
  <path d="m24.89,14.82c.84.05,1.69.13,2.53.14,1.68.02,3.35-.06,5.03,0,1.58.05,2.06.66,2.13,2.24.11,2.47-.94,4.59-2.42,6.34-4.2,4.96-9.58,7.4-16.17,6.84-3.15-.26-6.32-1.1-8.73-2.92C3.61,24.72,1.11,20.87.07,16.28c-.07-.31-.1-.65-.04-.95C1.04,10.63,2.78,6.33,6.9,3.47,10.08,1.25,13.68.28,17.57.1c5.36-.25,9.63,1.89,13.29,5.58.56.56,1.3.94,1.84,1.51,1.08,1.15.85,2.13-.57,2.82-1.98.96-3.98,1.9-5.94,2.91-.58.3-1.05.82-1.58,1.24.09.22.18.44.27.66Zm-.71,6.49c-.25-.05-.56-.17-.85-.15-3.14.28-3.36.1-3.37-3.01,0-.56-.07-1.17.13-1.66.29-.69.7-1.41,1.24-1.9.99-.89,2.07-1.69,3.2-2.41.53-.34,1.32-.41,1.19-1.23-.11-.67-.29-1.45-.72-1.93-.72-.82-1.56-1.74-2.54-2.09-3.13-1.14-6.36-1.65-9.51-.04-1.96,1-3.71,2.47-4.34,4.56-.81,2.69-.56,5.53.09,8.28.05.2.33.34.46.53,2.2,3.04,5.35,4.24,8.91,4.18,1.91-.03,3.94-.27,5.65-1.49.63-.45.9-.84.47-1.64Z"/>
  <path d="m139.9,29.43c1.8-3.08,1.47-6.56,1.27-9.95-.09-1.54-1.2-3.03-1.2-4.55,0-1.42.98-2.82,1.24-4.28.24-1.32.11-2.71.12-4.07,0-1.77-.04-3.47-1.57-4.81-.78-.68-.39-1.63.62-1.65,2.71-.06,5.43,0,8.15.04.2,0,.4.21.62.33.04.26.18.54.09.71-1.8,3.65-.94,7.51-.93,11.3,0,.46.14.98.39,1.36.62,1,.55,1.95.07,2.96-.9,1.89-.74,3.88-.55,5.88.09.94.49,1.49,1.35,1.73.53.15,1.08.35,1.62.36,3.66.04,7.34.37,10.92-.89,1.6-.56,2.15-.07,2.15,1.65,0,.96-.04,1.92-.11,2.87-.11,1.44-.59,1.95-2.06,2.14-.71.09-1.44.07-2.16.07-5.84,0-11.68-.01-17.52,0-.98,0-1.95.01-2.5-1.18Z"/>
  <path d="m129.34,23.39c1.05.43,1.13,1.28,1.07,2.21-.06.95-.11,1.9-.13,2.86-.03,1.3-.5,1.9-1.75,2.12-.39.07-.8.05-1.2.05-6.39.02-12.78.03-19.18.04-.88,0-1.8.05-2.27-1.05,1.67-2.93,1.61-6.21,1.49-9.46-.04-1.06-.63-2.12-1.07-3.13-.44-1.02-.53-1.98,0-2.99,1.55-2.91,1.1-6.07.99-9.15-.04-.97-.68-1.93-1.1-2.86-.62-1.36-.37-1.97,1.11-2,2.23-.05,4.47.04,6.71.12,1.03.04,1.46.66,1.08,1.63-1.37,3.49-.71,7.07-.55,10.64.08,1.89.02,3.8-.03,5.69-.04,1.43-.23,2.87-.23,4.3,0,1.48.37,1.98,1.76,2.05,3.27.17,6.55.3,9.81.21,1.12-.03,2.22-.78,3.49-1.27Z"/>
  <path d="m89.11.07c1.2,0,2.4-.08,3.59.02,1.16.1,1.62.82,1.03,1.79-2.02,3.29-.92,6.85-1,10.3-.02.61.72,1.21.92,1.87.19.63.43,1.54.13,1.96-1.26,1.78-1.17,3.8-1.18,5.75-.01,2.43-.38,4.94,1.14,7.19.55.82.09,1.5-1.01,1.6-1.11.11-2.24.03-3.35.03-1.04,0-2.08.04-3.12,0-1.69-.05-2.11-.7-1.5-2.32.11-.3.34-.55.44-.85.71-2.05,1.29-4.06.62-6.3-.52-1.74-.74-3.59-.96-5.4-.08-.66.12-1.4.33-2.05,1.27-3.96.92-7.84-.49-11.67-.5-1.36-.19-1.94,1.29-1.99,1.04-.04,2.08,0,3.12,0,0,.02,0,.04,0,.06Z"/>
</svg>