<?xml version="1.0" encoding="UTF-8"?>
<svg id="Layer_1" data-name="Layer 1" xmlns="http://www.w3.org/2000/svg" viewBox="0 0 55.06 52.91" fill="#eca323">
  <path d="m10.04,52.64c.07-.73,0-1.51.24-2.19,1.15-3.39,2.4-6.74,3.55-10.12.62-1.81,1.1-3.66,1.66-5.5.49-1.62-.19-2.79-1.46-3.7-4.4-3.13-8.81-6.24-13.19-9.4-.37-.27-.52-.84-.83-1.38,1.74-.82,3.28-1.23,5.01-1.19,4.32.08,8.64.03,12.96.01,2.37,0,2.46,0,3.23-2.24,1.11-3.21,2.06-6.46,3.12-9.69.62-1.9,1.26-3.79,1.99-5.64.2-.52.79-.88,1.48-1.61.47.94.86,1.51,1.06,2.14,1.51,4.77,3.01,9.54,4.46,14.33.67,2.19,1.26,2.72,3.57,2.73,4.88.01,9.76-.05,14.64.02,1.13.02,2.26.45,3.54.72-.77,2.35-2.72,3-4.13,4.09-2.88,2.23-6,4.15-8.98,6.25-.83.59-1.7,1.25-2.24,2.08-.38.58-.47,1.56-.28,2.25.65,2.38,1.49,4.72,2.25,7.07,1.02,3.18,2.06,6.36,3.01,9.56.13.44-.15,1-.24,1.51-.5-.13-1.08-.14-1.48-.42-2.4-1.71-4.75-3.5-7.14-5.24-2.16-1.57-4.31-3.17-6.54-4.65-1.13-.75-2.45-.78-3.62,0-1.9,1.28-3.75,2.62-5.61,3.95-2.33,1.67-4.63,3.38-6.96,5.04-.77.54-1.61.99-2.42,1.47-.21-.09-.43-.18-.64-.27Z"/>
</svg>