<?xml version="1.0" encoding="UTF-8"?>
<svg id="Layer_1" data-name="Layer 1" xmlns="http://www.w3.org/2000/svg" viewBox="0 0 56.42 54.33">
  <defs>
    <style>
      .cls-1 {
        fill: #fbb040;
      }
    </style>
  </defs>
  <path d="m11.04,53.07c.07-.72,0-1.49.23-2.16,1.13-3.33,2.36-6.63,3.49-9.96.61-1.78,1.08-3.6,1.63-5.41.48-1.6-.19-2.74-1.44-3.64-4.33-3.08-8.67-6.14-12.98-9.24-.37-.26-.51-.83-.82-1.35,1.71-.81,3.23-1.21,4.93-1.17,4.25.08,8.5.03,12.75.01,2.34,0,2.42,0,3.18-2.2,1.09-3.15,2.03-6.36,3.07-9.53.61-1.87,1.24-3.73,1.96-5.55.2-.51.78-.87,1.46-1.58.46.92.85,1.48,1.04,2.11,1.49,4.69,2.96,9.39,4.39,14.09.66,2.15,1.24,2.68,3.51,2.68,4.8.01,9.6-.05,14.4.02,1.11.02,2.22.44,3.48.71-.75,2.31-2.68,2.95-4.07,4.02-2.84,2.19-5.9,4.08-8.83,6.14-.82.58-1.67,1.23-2.21,2.05-.37.57-.46,1.54-.27,2.22.64,2.35,1.47,4.64,2.21,6.96,1,3.13,2.02,6.26,2.96,9.4.13.43-.15.99-.23,1.49-.49-.13-1.07-.14-1.45-.41-2.36-1.68-4.67-3.44-7.02-5.15-2.13-1.55-4.24-3.12-6.43-4.57-1.11-.74-2.41-.77-3.56,0-1.87,1.26-3.69,2.57-5.52,3.89-2.29,1.64-4.55,3.32-6.85,4.95-.76.54-1.58.97-2.38,1.45-.21-.09-.42-.18-.63-.27Z"/>
  <path class="cls-1" d="m11.43,54.33l-1.22-.52.04-.37c.02-.22.03-.45.04-.67.02-.54.04-1.09.22-1.63.59-1.76,1.22-3.5,1.84-5.25.58-1.62,1.16-3.24,1.71-4.87.4-1.18.76-2.41,1.1-3.59.18-.63.36-1.26.55-1.89.38-1.26-.03-2.25-1.28-3.15-1.49-1.06-2.99-2.13-4.49-3.19-2.91-2.06-5.82-4.13-8.71-6.21-.35-.26-.54-.65-.72-1.04-.08-.16-.15-.33-.25-.49l-.28-.47.49-.23c1.89-.89,3.5-1.27,5.24-1.24,3.32.07,6.7.05,9.97.03h2.98q2.11-.02,2.76-1.91c.67-1.95,1.3-3.95,1.91-5.88.4-1.27.8-2.53,1.21-3.8.56-1.73,1.23-3.73,2-5.67.18-.44.53-.77.93-1.14.2-.18.42-.38.65-.63l.49-.52.32.64c.16.32.31.59.45.84.27.49.5.91.64,1.37,1.75,5.51,3.16,10.06,4.46,14.33.62,2.04,1.05,2.37,3.09,2.37,1.79,0,3.58,0,5.37,0,3.04,0,6.18-.02,9.27.03.83.01,1.62.22,2.46.44.38.1.77.2,1.17.29l.54.12-.17.53c-.64,1.95-2.02,2.83-3.24,3.61-.37.23-.73.46-1.06.72-1.84,1.42-3.79,2.73-5.68,4-1.11.75-2.22,1.49-3.32,2.26-.8.57-1.62,1.2-2.11,1.95-.28.43-.38,1.26-.21,1.85.45,1.63.99,3.27,1.52,4.85.24.73.49,1.46.72,2.2l.46,1.43c.86,2.66,1.74,5.42,2.56,8.14.13.44,0,.9-.11,1.3-.04.15-.09.3-.11.44l-.09.54-.53-.14c-.14-.04-.3-.06-.45-.09-.39-.07-.83-.15-1.19-.4-1.44-1.02-2.85-2.07-4.27-3.12-.96-.71-1.91-1.42-2.88-2.12l-.99-.72c-1.8-1.31-3.65-2.67-5.53-3.92-.98-.65-2.1-.65-3.07,0-1.77,1.19-3.52,2.45-5.23,3.67l-.37.27c-.99.71-1.98,1.43-2.96,2.15-1.33.97-2.66,1.94-4,2.89-.55.39-1.13.72-1.69,1.05-.25.15-.51.29-.76.45l-.22.13Zm-.16-1.15l.08.03c.18-.11.37-.22.56-.32.54-.31,1.1-.64,1.61-1,1.34-.95,2.66-1.92,3.99-2.88.99-.72,1.98-1.44,2.97-2.15l.37-.27c1.71-1.23,3.47-2.5,5.25-3.69,1.32-.89,2.85-.89,4.18,0,1.9,1.26,3.77,2.62,5.57,3.94l.99.72c.96.7,1.92,1.41,2.88,2.12,1.41,1.04,2.82,2.09,4.25,3.11.18.12.47.18.78.23h.03s0-.02.01-.04c.08-.27.16-.58.12-.74-.81-2.72-1.7-5.46-2.55-8.12l-.46-1.43c-.23-.73-.48-1.46-.72-2.19-.53-1.6-1.08-3.25-1.54-4.91-.21-.75-.15-1.9.34-2.66.59-.89,1.49-1.59,2.37-2.22,1.1-.77,2.22-1.52,3.33-2.27,1.88-1.26,3.82-2.56,5.63-3.96.35-.27.74-.52,1.14-.77,1.05-.67,2.05-1.3,2.63-2.56-.22-.05-.44-.11-.65-.17-.78-.21-1.51-.4-2.22-.41-3.08-.05-6.22-.04-9.25-.03-1.79,0-3.59.01-5.38,0-2.47,0-3.3-.64-4.05-3.08-1.3-4.27-2.72-8.82-4.46-14.32-.12-.37-.32-.73-.57-1.19-.05-.09-.09-.17-.14-.27-.07.07-.14.13-.2.19-.33.3-.59.55-.68.78-.76,1.92-1.42,3.9-1.98,5.61-.41,1.26-.81,2.52-1.2,3.79-.61,1.94-1.24,3.95-1.92,5.91-.86,2.48-1.16,2.57-3.66,2.57h-3.03c-3.28.03-6.66.05-9.99-.02-1.44-.04-2.78.26-4.32.93.01.03.02.05.04.08.13.28.26.55.4.65,2.89,2.08,5.8,4.15,8.7,6.21,1.5,1.06,2.99,2.12,4.49,3.19,1.6,1.14,2.16,2.57,1.65,4.25-.19.62-.37,1.25-.55,1.88-.34,1.2-.7,2.43-1.11,3.64-.56,1.63-1.14,3.26-1.72,4.88-.62,1.74-1.24,3.49-1.84,5.24-.13.4-.15.86-.17,1.35,0,.12,0,.24-.02.37Z"/>
</svg>