<?xml version="1.0" encoding="UTF-8"?>
<svg id="Layer_1" data-name="Layer 1" xmlns="http://www.w3.org/2000/svg" viewBox="0 0 355.47 29.29">
  <path d="m165.92,1.3c1.25,4.55,1.15,9.19,2.85,13.69,1.37-.98,1.47-2.21,1.61-3.47.35-3.39.77-6.78,1.19-10.41,2.26-.08,4.56-.27,6.85-.21,1.48.04,1.82.77,1.43,2.33-.72,2.86-1.57,5.69-2.18,8.57-.88,4.12-1.56,8.28-2.39,12.41-.26,1.32-.73,2.59-1.13,4.01-2.2.64-4.51.56-6.8.38-1.27-.1-1.95-.95-2.16-2.2-.32-1.97-.65-3.93-.98-5.89-.17-1-.06-2.12-1.44-2.83-.46,1.96-.91,3.85-1.33,5.74-.19.86-.32,1.72-.5,2.58-.47,2.29-.74,2.59-3.09,2.83-1.27.13-2.56.11-3.83.06-1.54-.07-2.3-.78-2.58-2.31-.44-2.42-.8-4.86-1.27-7.28-.31-1.63-.76-3.23-1.14-4.85-.87-3.7-1.74-7.4-2.59-11.11-.14-.6-.13-1.24-.22-2.14,1.03-.17,1.93-.39,2.84-.45.71-.05,1.43.16,2.15.16,4.32-.02,3.37.59,3.76,3.8.43,3.55,1.03,7.07,1.58,10.81,1.63-.54,1.57-1.73,1.75-2.75.65-3.76,1.28-7.52,1.94-11.46h5.69Z"/>
  <path d="m117.05,13.78c-.27-2.22.2-4.93,1.44-7.34,1.69-3.27,4.22-5.82,8.12-6.2,2.53-.25,5.13-.34,7.64-.01,3.7.47,6.53,2.44,8.48,5.78,2.03,3.5,1.75,7.22,1.52,10.94-.13,2.04-.45,4.06-1.41,6-1.85,3.76-4.93,5.64-8.87,6.16-2.2.29-4.47.16-6.69.05-3.3-.16-8.04-3.73-9.15-7.09-.85-2.57-1.09-5.12-1.08-8.29Zm8.3.91c.06.01.12.02.17.03,0,.56-.08,1.13.02,1.67.16.93.46,1.84.66,2.77.41,1.97,1.82,3.36,3.78,3.69,1.76.3,3.85-.8,4.68-2.39,1.77-3.39,1.63-6.95.61-10.44-.99-3.39-4.67-4.53-7.64-2.55-.54.36-1.09,1.01-1.24,1.62-.45,1.84-.71,3.73-1.04,5.6Z"/>
  <path d="m279.82,14.42c-.48,2.64-.78,5.33-1.52,7.89-.37,1.3-1.37,2.54-2.38,3.5-2.16,2.06-4.66,3.54-7.83,3.43-1.52-.05-3.03-.01-4.55-.01-3.6,0-6.45-1.84-8.73-4.26-1.21-1.29-1.85-3.4-2.1-5.22-.41-2.98-.69-6.1-.29-9.05.4-2.89,1.4-5.67,4.01-7.79,2.25-1.82,4.55-2.73,7.31-2.83,3.02-.11,5.99-.23,8.92,1.04,2.84,1.23,4.52,3.4,5.66,6.03.98,2.26,1.54,4.68,1,7.23.16.02.33.03.49.05Zm-8.35.63c-.38-1.86-.74-3.48-1.04-5.11-.36-1.9-1.67-2.93-3.38-3.28-1.75-.35-3.43-.01-4.81,1.4-1.26,1.3-1.21,2.92-1.32,4.48-.21,2.78-.29,5.51,1.07,8.16.96,1.88,2.59,2.05,4.2,2.12,1.81.08,3.27-1.03,3.94-2.64.69-1.66.93-3.5,1.33-5.13Z"/>
  <path d="m183.46,1.38c2.76-.8,5.31-.58,7.83-.22.48.07,1.05.66,1.28,1.15,1.38,2.94,2.65,5.93,4.02,8.87.62,1.34,1.39,2.6,2.21,4.13.94-1.23.82-2.32.8-3.41-.05-2.79-.13-5.59-.08-8.38.04-2.16.42-2.45,2.59-2.49,1.12-.02,2.24-.02,3.35.04,1.68.09,1.83.31,1.81,2.06-.1,6.22-.22,12.45-.26,18.67-.01,1.51.26,3.02.33,4.53.07,1.57-.28,2.12-1.8,2.24-1.9.15-3.83.09-5.74.04-1.46-.04-1.86-1.3-2.38-2.33-1.19-2.32-2.34-4.66-3.47-7.01-.51-1.07-.9-2.19-1.38-3.27-.11-.26-.37-.45-.9-1.07-.2,1.32-.44,2.21-.45,3.11-.05,2.55,0,5.11,0,7.67,0,2.34-.39,2.76-2.75,2.93-.8.06-1.59.12-2.39.18q-1.31.09-2.67-.96c.53-8.79.5-17.54.06-26.5Z"/>
  <path d="m223.41,1.2h7.88c0,2.12,0,4.01,0,5.9q0,4.19,4.28,4.14c.64,0,1.28,0,1.92-.04,1.84-.08,2.41-.63,2.41-2.49,0-1.84-.13-3.67-.16-5.51-.03-1.85.19-2.1,2.01-2.15,1.6-.05,3.2-.05,4.8,0,.44.01.88.27,1.34.42.05.39.14.7.13,1.01-.18,6.78-.39,13.56-.53,20.35-.02,1.18.25,2.36.45,3.54.28,1.64-.26,2.42-1.96,2.5-1.44.07-2.88.09-4.32.03-1.56-.07-2.04-.72-1.98-2.29.08-2.07.22-4.15.16-6.22-.06-2.3-.47-2.58-2.71-2.54-1.82.03-3.64,0-5.69,0-.07,1.02-.16,1.79-.16,2.56,0,1.84,0,3.68.05,5.52.05,2.44-.5,3.03-2.86,2.96-1.11-.03-2.23-.03-3.34-.08-1.4-.06-1.96-.71-1.96-2.11.01-8.23.01-16.46.03-24.69,0-.15.08-.3.21-.8Z"/>
  <path d="m28.3,1.02c2.24,0,4.29-.03,6.35.01.85.02,1.32.55,1.32,1.4,0,.8-.07,1.59-.11,2.39-.08,1.36-.23,2.71-.21,4.07.02,1.54.66,2.23,2.15,2.3,1.67.08,3.36.02,5.04,0,1.08-.02,1.6-.61,1.6-1.67,0-2.08-.02-4.16,0-6.23.01-1.9.32-2.31,2.17-2.37,1.9-.06,3.8.08,5.8.14.08.82.17,1.35.17,1.89-.01,7.67-.05,15.35-.05,23.02,0,2.44-.42,2.91-2.92,2.93-.96,0-1.92-.04-2.87-.04-1.82,0-2.46-.63-2.38-2.42.1-2.23.25-4.46.32-6.69.05-1.57-.18-1.82-1.72-1.86-1.68-.05-3.36-.07-5.03,0-1.78.07-2.24.54-2.26,2.35-.01,1.51.17,3.03.26,4.54.05.8.17,1.6.09,2.39-.11,1.08-.78,1.76-1.92,1.73-1.52-.04-3.05-.08-4.54-.3-1.6-.24-2.02-1.15-1.67-2.77.24-1.08.42-2.19.41-3.29,0-6.63-.08-13.27-.12-19.9,0-.39.07-.79.14-1.61Z"/>
  <path d="m299.58,1.3c2.58-.43,5-.23,7.58-.06.1.74.27,1.34.26,1.95-.04,5.51-.07,11.02-.18,16.52-.07,3.24-1.17,6.02-3.93,8-1.07.76-2.13,1.32-3.48,1.32-2.31,0-4.62.24-6.92.14-3.14-.13-5.85-1.31-7.84-3.86-.24-.3-.58-.61-.64-.96-.36-2.04-.87-4.08-.94-6.13-.18-5.34-.16-10.69-.21-16.04,0-.23.12-.45.23-.85,2.52-.68,5.05-.76,7.81.13,0,1.12,0,2.14,0,3.17,0,4.31-.06,8.62.04,12.93.03,1.15.37,2.36.87,3.4.68,1.44,2.07,2.01,3.61,1.8,1.59-.22,2.93-1.01,3.31-2.7.31-1.39.53-2.84.54-4.26.03-3.99-.06-7.98-.11-11.97,0-.79,0-1.57,0-2.53Z"/>
  <path d="m329.71,9.07c-.64-.37-1.3-.7-1.92-1.1-2.31-1.5-4.79-2.17-7.52-1.61-.95.19-1.87.43-1.98,1.71-.11,1.3.61,1.91,1.69,2.25,2.06.65,4.13,1.24,6.18,1.89,2.23.71,4.31,1.68,5.44,3.91.35.68.73,1.44.75,2.18.05,1.67-.01,3.36-.22,5.02-.32,2.53-2.35,3.65-4.29,4.73-2.78,1.55-5.87,1.13-8.87,1.19-1.67.03-3.35-.15-5.02-.21-2.01-.06-2.3-.32-2.37-2.39-.05-1.6-.1-3.19-.05-4.79.06-1.71.81-2.03,2.34-1.2,1.32.71,2.75,1.23,4.07,1.96,1.64.91,3.27.38,4.89.1.83-.15,1.6-.69,1.48-1.61-.09-.71-.46-1.75-.98-1.97-1.96-.82-4-1.51-6.07-1.98-2.47-.57-4.42-1.86-5.44-4.08-1.8-3.93-1.26-7.68,2.02-10.96,1.12-1.12,3.06-1.73,4.7-1.92,2.52-.29,5.1-.01,7.65.04.56.01,1.11.09,1.67.09,2.57.01,2.62.05,2.59,2.72-.02,1.89-.04,3.78-.06,5.67l-.68.38Z"/>
  <path d="m336.53,1.46c2.24-.64,17.03-.5,18.78.24,0,1.28.06,2.71-.02,4.13-.08,1.53-.66,1.87-2.16,1.74-2.22-.18-4.45-.32-6.68-.32-1.7,0-2.11.48-2.13,1.9-.02,1.5.51,2.01,2.26,2.06,1.49.04,2.98,0,4.75,0,0,1.97.06,3.62-.02,5.26-.05,1.01-.73,1.56-1.77,1.56-.8,0-1.6-.09-2.39-.06-.85.03-1.71.15-2.65.24-.08.63-.2,1.08-.19,1.53.04,1.68.44,2.22,2.07,2.25,2.23.05,4.47-.02,6.69-.18,1.84-.13,2.32.16,2.39,2,.05,1.35,0,2.7,0,4.17-.82.3-1.48.74-2.13.74-4.78-.04-9.57-.08-14.34-.3-2.53-.12-2.58-.52-2.55-2.95.1-6.87.07-13.73.1-20.6,0-1.11,0-2.22,0-3.42Z"/>
  <path d="m76.39,1.66c0,1.26.05,2.61-.01,3.95-.08,1.56-.54,1.94-2.12,1.87-1.68-.07-3.35-.2-5.03-.27-.63-.03-1.28-.03-1.9.09-1.13.21-1.53,1.11-1.62,2.11-.08.91.73,1.68,1.9,1.74,1.5.08,3.01.02,4.51.02,1.01,2.03.55,3.95.36,5.81-.04.39-.86.91-1.38,1.01-.76.15-1.59,0-2.38-.08-2.22-.2-3.03.19-3.14,1.55-.15,1.77.82,2.58,3.11,2.56,1.76-.01,3.52-.1,5.28-.08.83,0,1.66.19,2.57.3,0,1.7.06,3.13-.02,4.56-.07,1.43-.65,2.11-2.06,2.1-4.88-.01-9.75-.07-14.63-.25-1.84-.07-2.14-.84-2.11-2.73.12-7.03.13-14.05.18-21.08,0-1.1,0-2.21,0-3.26,1.73-.73,16.57-.69,18.5.08Z"/>
  <path d="m24.47,1.24c0,1.86.06,3.37-.02,4.87-.07,1.37-.39,1.52-1.87,1.37-1.34-.14-2.7-.26-4.05-.28-1.62-.02-2.18.47-2.2,2.13-.06,5.43-.1,10.86-.04,16.29.04,2.79-.25,3.22-3.04,3.27-.72.01-1.44.05-2.16.04-2.26-.02-2.84-.6-2.83-2.82.02-4.95.06-9.9.07-14.85,0-3.97-.24-4.18-4.28-3.92-.8.05-1.59.17-2.39.18-.92.01-1.49-.48-1.63-1.41-.02-.16-.05-.32-.04-.48C.1,1.14-.81,1.01,4.23,1.05c5.75.04,11.5,0,17.25.02.86,0,1.72.09,2.99.16Z"/>
  <path d="m90.14,1.45c3.56-.84,21.28-.76,24.18.12,0,1.4.04,2.89-.01,4.39-.04,1.19-.73,1.68-1.91,1.57-1.27-.12-2.55-.25-3.82-.25-1.89,0-2.37.4-2.38,2.18-.04,5.35-.06,10.7.06,16.05.07,2.83-.38,3.42-3.22,3.25-.79-.05-1.59.01-2.39.04-1.9.07-2.45-.45-2.42-2.33.06-4.63.13-9.27.18-13.9.01-1.12.04-2.24-.05-3.35-.11-1.45-.67-2.02-2.13-2.02-1.27,0-2.55.19-3.82.28-1.8.14-2.2-.18-2.27-1.88-.05-1.35,0-2.7,0-4.15Z"/>
</svg>