<?xml version="1.0" encoding="UTF-8"?>
<svg id="Layer_2" data-name="Layer 2" xmlns="http://www.w3.org/2000/svg" viewBox="0 0 542.98 548">
  <defs>
    <style>
      .cls-1 {
        fill: #f9f9f9;
      }
    </style>
  </defs>
  <g id="Layer_1-2" data-name="Layer 1">
    <g>
      <path class="cls-1" d="m337.35,32.32c-2.66-2-6.27-1.37-7.98,1.34-.31.49-.84,1.07-1.35,1.15-4.17.69-7.38,3.13-10.52,5.68-1.17.95-2.33,1.95-3.34,3.06-1.26,1.39-2.78,2.03-4.61,2.23-2.88.31-3.26.88-3.53,3.78-.26,2.76.71,4.98,2.51,6.97.69.76,1.25,1.65,1.91,2.44,3.36,4.02,3.29,8.55,2.09,13.3-.47,1.85-.81,3.75-1.03,5.65-.35,3.09-2.06,5.65-3.16,8.44-.64,1.63-2.34,2.32-3.82,3.12-.83.45-1.64.94-2.49,1.37-2.76,1.38-3.39,3.83-3.3,6.61.13,3.99.35,7.97.45,11.96.07,3.04-.03,6.08.02,9.11.04,2.33-.87,4.27-1.98,6.25-1.82,3.26-3.44,6.63-5.05,10-1.05,2.21-1.82,4.55-2.88,6.75-1.58,3.28-2.26,6.79-2.83,10.32-.58,3.62-.68,7.31-1.26,10.93-.86,5.43-1.34,10.95-3.22,16.18-.83,2.32-4.47,4.01-7.09,1.99-1.69-1.3-1.77-1.46-3.2-.25-2.55,2.17-7.27.97-8.35-3.01-.51-1.89-1.33-3.79-.51-5.86.16-.41-.14-1.07-.36-1.55-.79-1.69-1.14-3.43-1.34-5.29-.61-5.62-1.34-11.23-2.16-16.82-.43-2.94-2.01-5.5-3.14-8.21-1.27-3.06-2.36-6.2-3.74-9.2-1.02-2.22-2.3-4.32-3.61-6.38-1.07-1.69-1.62-3.48-1.59-5.43.07-4.23.26-8.47.3-12.7.04-3.67.1-7.36-.17-11.02-.2-2.73-2.45-4.12-4.54-5.47-.53-.34-1.09-.69-1.69-.89-2.64-.89-3.7-3.13-4.6-5.43-2.25-5.79-3.18-11.82-3.21-18.02,0-1.8.27-3.4,1.52-4.87,1.54-1.8,2.85-3.8,4.19-5.76,1.47-2.15,2.06-4.41.89-6.97-.57-1.26-1.4-1.96-2.7-1.95-2.27.01-3.9-1.09-5.41-2.65-3.34-3.46-7.06-6.48-11.69-7.93-2.06-.65-4.41-.44-6.63-.48-2.34-.04-3.75,1.55-5.34,3.04-2.23,2.09-2.25,4.78-2.55,7.39-.19,1.65-.03,3.35,0,5.03,0,.47-.03,1,.17,1.4,3.68,7.18,6.73,14.68,11.46,21.35,3.62,5.11,7.13,10.34,9.73,16.1,1.65,3.66,2.94,7.35,2.75,11.46-.14,3.2-1.07,6.16-2.76,8.76-.94,1.44-2.59,2.56-4.14,3.43-3.29,1.85-6.99,2.03-10.68,2.05-5.83.02-11.67.03-17.5.05-.08,0-.16,0-.24,0-2.36-.04-4.48.68-6.47,1.8-3.05,1.73-5.38,4.11-7.16,7.11-.64,1.08-1.44,2.1-2.3,3.02-.43.47-1.39,1.06-1.71.88-.58-.32-1.11-1.14-1.22-1.83-.43-2.74-.16-5.44,1.18-7.92,1.67-3.09,3.66-5.96,6.57-8.04,1.95-1.39,4.08-2.36,6.39-3.05,4.87-1.46,9.88-1.77,14.88-2.35,1.79-.21,3.58-.72,5.29-1.33,2.07-.74,3.01-2.04,2.68-4.19-.33-2.17-.89-4.42-1.9-6.34-1.81-3.44-4.14-6.57-6.61-9.61-3.54-4.36-6.87-8.88-10.26-13.36-3.22-4.26-6.12-8.72-8.28-13.62-1.34-3.04-2.83-6.05-3.74-9.23-1.2-4.2-1.57-8.54-1.4-12.97.16-4.03.75-7.93,2.18-11.67,3.47-9.06,9.37-15.96,18.44-19.75,5.28-2.2,10.8-3.1,16.52-1.87.16.03.32.07.47.06,4.06-.13,7.91,1.01,11.64,2.33,3.05,1.08,5.94,2.71,8.72,4.4,5.81,3.54,10.58,8.31,15.14,13.31,1.64,1.79,2.21,3.75,2.25,6.07.06,3.07,1.3,3.87,4.24,2.75,1.63-.62,3.15-1.52,4.75-2.19,2.05-.86,4.15-1.48,6.44-1.5,4.02-.04,7.98.07,11.7,1.87,1.64.79,3.3,1.58,5.01,2.22,1.69.63,2.78-.02,2.77-1.81-.02-4.37,2.3-7.45,5.2-10.31,3.67-3.62,7.44-7.1,11.79-9.94,4.24-2.77,8.71-4.86,13.63-6.12,3.88-.99,7.82-1.57,11.76-1.56,5.58,0,11.06,1.06,16.05,3.72,1.81.97,3.51,2.23,5.06,3.58,3.26,2.84,5.92,6.26,7.88,10.08,1.44,2.8,2.26,5.92,3.3,8.91,1.7,4.89,1.27,9.97.88,14.96-.21,2.72-1.16,5.44-2.1,8.04-2.85,7.9-7.13,15.01-12.32,21.6-4.07,5.18-8.16,10.34-12.04,15.66-1.81,2.48-3.27,5.26-4.63,8.03-.68,1.39-.97,3.06-1.07,4.62-.13,2.31,1.53,3.98,4.12,4.51,1.33.27,2.67.5,4.02.68,3.72.5,7.45.94,11.16,1.45,3.75.52,7.11,2.04,10.2,4.19,3.44,2.38,5.67,5.59,7.14,9.52.83,2.22.93,4.35.62,6.56-.22,1.63-1.25,2.04-2.51.96-.95-.82-1.83-1.81-2.46-2.89-3.8-6.48-9.54-9.63-16.93-9.77-5.92-.11-11.84.18-17.75,0-2.59-.08-5.25-.65-7.71-1.49-1.9-.65-3.49-2.06-4.54-3.99-1.36-2.5-2.35-5.05-2.17-7.95.04-.72.03-1.44-.03-2.16-.41-4.56,1.52-8.43,3.74-12.13,4.42-7.35,9.11-14.54,13.52-21.89,2.24-3.74,4.3-7.61,5.6-11.81,1.45-4.68,1.97-9.34-.45-13.9-1.18-2.22-3.08-3.58-5.43-4.3-.88-.27-1.97-.42-1.61-1.56.33-1.05,1.41-.78,2.28-.49.53.17,1.04.43,1.58.53.78.14,1.21-.24,1.21-1.06Zm-2.04-4.63c2.15.73,4.32,1.14,6.75.5-1.98-1.58-4.58-1.69-6.7-.43-1.19.2-2.51-.15-3.52.79,1.25.1,2.63.68,3.47-.86Zm-80.17,104.11c.32,1.62.67,3.22,1.79,4.53.37,1.3.6,2.65,1.12,3.89,2.27,5.47,3.86,11.11,4.37,17.03,0,.11.18.21.34.39.32-.5.62-.99,1.11-1.76.67,1.57.44,2.68-.11,3.9-.78,1.75-.84,3.59-.07,5.5.65-.71,1.44-1.5,1.44-2.28,0-2.53-.15-5.08-.49-7.58-.36-2.66-1.09-5.27-1.51-7.93-.35-2.22-.18-4.4.83-6.53.83-1.73-.26-3.37-2.05-3.38-.94,0-1.93.44-2.8.24-.81-.18-1.49-.94-2.22-1.45.32-1.88-.48-3.3-1.83-4.5-.38-2.07-.71-4.16-1.2-6.2-.09-.39-.78-.74-1.26-.89-.26-.08-.95.31-.95.49,0,.48.2.98.42,1.43.72,1.48,1.46,2.95,2.24,4.39.16.3.53.48.81.72Zm74.88-55.13c-.6.47-1.38.83-1.78,1.43-2.57,3.8-4.08,7.98-4.02,12.63.01.89.15,1.77.23,2.66.21,0,.43-.02.64-.02.05-1.13.09-2.27.14-3.4.05-1.03-.15-2.16.21-3.07,1.16-2.92,2.1-5.95,4.04-8.52.34-.45.32-1.17.47-1.77,1.11.17,1.03-.44.56-1.25-.17.44-.33.88-.5,1.32Zm9.03-16c.53-.43,1.3-.75,1.55-1.31.97-2.16,1.88-4.35,2.61-6.6.96-3,.97-6.14.75-9.24-.07-1.04-.63-2.04-.97-3.06-.19.03-.38.06-.57.1.07,1.14.13,2.28.21,3.42.06.87.31,1.76.19,2.6-.47,3.53-.79,7.09-2.42,10.37-.59,1.18-.87,2.52-1.28,3.79q-.87.98-.16,1.89c.04-.75.06-1.36.09-1.97Zm-118.02,50.04c-.71.06-1.47,0-2.13.21-3.5,1.12-7.08.88-10.67.81-4.07-.08-8.14-.02-12.21.01-.78,0-1.69-.17-2.38.92.72.09,1.18.19,1.64.19,3.99-.03,7.98-.07,11.97-.12,3.35-.04,6.7-.07,10.05-.17,1.51-.04,2.93-.37,3.68-1.93.74.09,1.52.32,2.27-.54-1.1-.52-1.78-.39-2.22.6Zm-15.08-50.57c.19-.86.49-1.74-.21-2.43-.18.05-.35.09-.53.14l.76,2.27c1.29,2.45,2.49,4.96,3.9,7.34,2.42,4.07,4.97,8.07,7.51,12.07.28.44.81.73,1.22,1.08.22-.73.14-1.2-.1-1.54-2.02-2.9-3.51-6.11-5.65-8.96-1.89-2.5-3.21-5.43-4.72-8.21-.5-.92-.86-1.9-2.17-1.77Zm67.32-16.83c-.3,0-.59.02-.89.03-.09-1.57-.25-3.13-.26-4.7,0-2.64.09-5.27.14-7.91.02-.91-.14-1.75-1.02-2.28-1.62-.98-7.84.84-8.7,2.55-.92,1.84-1.35,2.03-3.29,1.59-1.24-.28-2.49-.57-3.76-.71-.68-.07-1.66-.09-2.04.31-2.07,2.17-4.3,4.43-4.42,7.59-.1,2.67.46,5.37.75,8.06.19,1.74.66,3.49.6,5.22-.09,2.46-.54,4.91-.87,7.36-.06.46-.26.93-.48,1.35-.41.79-1.11,1.36-1.93.84-.47-.3-.68-1.12-.83-1.75-.08-.32.29-.73.37-1.11.22-.98-.41-1.66-1.29-1.27-.84.38-1.69.92-2.29,1.61-.65.75-1.4,1-2.06.51-.43-.32-.58-1.21-.58-1.84,0-.7.31-1.4.48-2.1-.19-.09-.37-.18-.56-.28-.92,1.16-1.94,2.25-2.72,3.48-.97,1.53-.78,1.52.6,2.93,1.18,1.21,3.02,2.07,2.98,4.12-.02,1.49.89,2.12,2,2.67.53.26,1.09.46,1.9.8-1.81,1-2.02,2.43-2.12,4.01-.12,1.9-.48,3.78-.68,5.67-.09.83-.01,1.67-.01,2.57q2.01-.53,3.48.46c1.4.95,2.07.86,2.9-.52.32-.53.52-1.17.65-1.79.51-2.34.97-4.7,1.55-7.49.49,1.42,1.1,2.44,1.15,3.49.11,2.58,1.15,4.77,2.37,6.94.78,1.38,1.55,2.76,2.31,4.11.19-.25.49-.62.95-1.22.54,1.31.37,2.3-.02,3.25-.42,1.02-.54,1.94.15,2.93,1.58,2.26,3.01,4.63,4.64,6.85.8,1.1,1.97.97,2.76-.25.77-1.18,1.44-2.44,1.98-3.74.82-1.97,1.76-2.36,3.6-1.23,1.43.88,2.95.79,4.3.12,1.9-.94,3.07-.7,3.9,1.21.35.8.61,1.64.94,2.45.74,1.79,1.63,2.1,3.3,1.01.72-.47,1.41-1.06,1.96-1.72.74-.9,1.26-1.98,2-2.88.88-1.07,1.2-2.22.95-3.56-.21-1.08-.32-2.17.38-3.17.52.35.91.62,1.33.9.98-2.52,1.39-5.02,2.83-7.21.83-1.26.98-3,1.31-4.55.26-1.25.28-2.54.49-3.8.06-.38.41-.71.92-1.55.17,1.14.27,1.73.34,2.32.21,1.98.34,3.98.64,5.95.22,1.43.75,2.79,2.25,3.49.46-.41.86-.95,1.4-1.23,1.42-.75,3.32-.16,3.31,1.07,0,1.3.17,2.73-.93,3.83-.32.32-.44.84-.84,1.65.95-.45,1.45-.67,1.93-.93,1.65-.9,1.86-1.73,1.13-3.51-.32-.78-.49-1.66-.52-2.5-.15-3.75-.76-7.39-2.14-10.74-.91-.23-1.56-.4-2.22-.56,1.02-.66,2.05-.99,3.11-1.22,1.26-.26,1.87-.97,2.16-2.23.22-.97.66-1.94,1.22-2.76.78-1.14,1.76-2.15,2.79-3.37-1.15-1.77-2.07-3.88-4.18-5.19-.55,1.51.99,3.38-1.08,4.47-1.23-.77-2.49-1.74-4.24-.85-.12.43-.22.98-.45,1.47-.15.32-.51.79-.73.77-.4-.04-.79-.37-1.13-.64-.17-.14-.27-.41-.3-.64-.47-3.07-1.26-6.14-1.27-9.21,0-3.16.57-6.36,1.25-9.47.52-2.36.04-4.22-1.48-5.96-.58-.66-1.15-1.33-1.62-2.07-1.05-1.65-2.46-2.06-4.31-1.62-1.39.33-2.83.49-4.26.62-1.05.1-1.78-.32-2.15-1.46-.19-.58-.77-1.22-1.33-1.47-1.53-.66-3.12-1.25-4.74-1.64-2.03-.5-3.24.62-3.15,2.71.08,1.68.32,3.36.22,5.03-.15,2.52-.54,5.02-.82,7.52Zm-8.85,64.89c-.41-.94-.89-1.93-1.29-2.94-.41-1.04-.57-2.21-1.14-3.13-1.87-3.03-3.88-5.97-5.82-8.96-.43-.65-.85-1.32-1.2-2.01-.86-1.68-1.75-3.36-2.49-5.09-.4-.92-.85-1.65-1.89-1.23-.92.37-1.2,1.33-.98,2.23.24.99.81,1.89,1.1,2.88.16.55.29,1.35.02,1.73-.74,1.02-.36,1.68.27,2.54,1.22,1.68,2.15,3.51,2.25,5.67.02.46.34.89.42,1.36.45,2.62.87,5.25,1.3,7.88.01.07-.05.15-.1.3-.18.04-.39.08-.61.12-.28.06-.56.11-1.17.24.91,7.8,2.14,15.31,6.65,22.03.53,0,1.09,0,1.64,0,1.81.02,2.16.28,2.71,2.01.17.53.17,1.19.49,1.58.69.83.66,2.42,2.34,2.37,0-1.88.42-3.83-.09-5.49-1.08-3.57-.56-7.13-.59-10.7,0-.35.14-.7.22-1.05.48,1.93.65,3.88,2.6,4.98.22.12.3.56.35.87.22,1.33.53,2.66.58,4,.13,3.19.12,6.39.2,9.59.04,1.58.35,3.09,1.78,4.48.39-3.37.04-6.54.65-10.15,1.78,1.79,1.14,3.57,1.36,5.12.22,1.57.3,3.17.5,5.28.47-.75.66-.93.7-1.13.5-3.06,1.1-6.09.98-9.25-.16-4.09.58-8.1,2.14-11.92.98-2.41,1.49-4.85,1.04-7.47-.16-.94-.11-1.91-.11-2.87,0-.88.49-1.31,1.34-1.34.97-.04,1.58.39,1.5,1.4-.15,1.98-.12,4.03-.66,5.91-.77,2.72-1.22,5.42-1.28,8.24-.04,2.13-.51,4.25-.74,6.37-.18,1.67-.94,3.39.15,5,1.06-.03,1.34-.63,1.53-1.38.3-1.16.67-2.29.99-3.44.28-.99.78-1.87,1.87-1.91,1.66-.05,2.31-1.2,3-2.38,1-1.7,1.98-3.42,3-5.11,1.4-2.35,2.58-4.73,2.25-7.62-.14-1.26.01-2.56.14-3.83.12-1.2.4-2.36-.7-3.33-.22-.19-.31-.84-.16-1.11.96-1.71.61-3.59.76-5.4.24-2.82.81-5.5,2.66-7.77.33-.41.67-1.06.58-1.51-.37-1.83.23-3.47.73-5.15.11-.37.23-.86.09-1.17-.26-.6-.63-1.45-1.11-1.56-.51-.12-1.41.33-1.76.81-.54.75-.73,1.75-1.12,2.62-.91,2.02-1.6,4.19-2.83,6.01-2.54,3.76-4.94,7.57-6.73,11.76-.28.65-.68,1.28-1.16,1.79-1.05,1.13-2.09,1.11-2.58-.34-.95-2.84-1.47-5.81-1.37-8.84,0-.08.06-.15.08-.22.33-1.37-.13-2.31-1.25-2.55-1.32-.28-2.07.12-2.32,1.67-.24,1.48-.13,3.01-.2,4.52-.04.81.28,1.73-.61,2.38-1.2-.7-.96-1.82-1.03-2.8-.11-1.43-.09-2.88-.29-4.3-.16-1.18-1.01-1.61-2.34-1.41-1.13.18-1.3.91-1.22,1.93.08,1.09,0,2.19-.08,3.28-.1,1.19-.33,2.37-.43,3.57-.22,2.55-.64,3-3.5,3.41ZM330.45,13.42c.23-.04.46-.08.69-.12.61,1.09,1.24,2.16,1.82,3.27.37.7.89,1.34,1.65,1,.64-.29,1.29-.93,1.55-1.58.28-.7.07-1.58.15-2.37.05-.48.23-.95.41-1.68,2.03,2.07,1.75,4.78,2.91,6.9.46-.31.76-.65,1.12-.74,1.97-.46,2.5-1.72,2.22-3.58-.09-.63-.23-1.43.96-1.97.58,2.83,1.13,5.48,1.7,8.28.78-.41,1.31-.9,1.9-.96,1.85-.2,2.3-1.43,2.49-2.97.07-.53.29-1.04.44-1.57.73,1.74,1.07,3.36,1.44,4.98.6,2.61.61,2.69,3.17,2.7,1.27,0,1.71.64,1.88,1.69.08.47-.02.98.11,1.43.16.58.32,1.34.75,1.63.71.49,1.31-.06,1.77-.7.08-.11.41-.05.88-.1,0,.7.04,1.31,0,1.91-.08,1.12-.24,2.23-.31,3.34-.05.83.04,1.59,1.06,1.88,1.27.36,1.15,1.3.91,2.32-.38,1.62-.67,3.26-1.07,4.87-.1.39-.44.95-.76,1.02-1.14.25-1.03,1.1-1.04,1.87-.02,2.71-.01,5.42.01,8.14,0,.41.16.82.32,1.59,2.33-4.29,3.84-8.48,4.34-12.84.7-6.02.65-12.09-1.75-17.87-1.85-4.44-4.5-8.39-7.62-11.98-3.26-3.75-7.48-6.1-12.26-7.45-.98-.28-1.94-.9-2.91-.92-4.63-.09-9.27-.05-13.9,0-.61,0-1.23.28-1.82.48-.81.27-1.6.61-2.4.89-.75.26-1.64.3-2.24.75-1.11.83-2.28,1.02-3.6,1.03-.58,0-1.5.21-1.69.61-.88,1.83-2.56,1.96-4.19,2.31-.6.13-1.56.34-1.67.72-.53,1.78-1.96,2.28-3.41,2.9-.47.2-.81.71-1.21,1.07-.99.9-1.9,1.91-2.99,2.66-1.28.88-2.45,1.72-2.78,3.39-.09.46-.55.91-.95,1.24-.97.78-2.12,1.36-2.98,2.23-1.18,1.2-1.73,2.67-.93,4.37.77,1.65,1.26,3.49,3.68,3.47.75,0,1.49.5,2.25.73,1.6.48,3.17,1.14,4.89.39,1.31-.58,1.69-1.23,1.32-2.62-.17-.64-.37-1.28-.68-2.34,1.47,1.27,2.56,2.2,3.63,3.12,2.19-2.49,1.82-5.01.78-7.6,2.54-.14,2.04,3.37,4.59,3.23.4-1.02,1.1-2.09,1.18-3.21.09-1.17-.42-2.39-.66-3.6,1.62-.23,1.4,1.23,2.06,1.79.73.62.67,2.1,2.05,1.97,1.8-1.57,1.1-3.84,2.06-5.88.93,1.54,1.86,3.08,2.81,4.65.7-1.23,1.34-2.2,1.82-3.23.5-1.06.85-2.2,1.26-3.3,1.42,1.02,1.27,3.13,2.97,3.61,1.73-1.41,3-2.86,1.83-5.25Zm-89.24,13.51c.29.15.57.31.86.46-.16.57-.28,1.15-.47,1.7-.8,2.27-.26,3.11,2.18,3.17.86.02,1.8-.02,2.59-.33,1.52-.59,2.91-.59,4.19.38.54-.63,1.02-1.14,1.44-1.69,2.28-3.01,2.31-7.57-1.87-9.47-1.06-.48-1.65-1.2-2-2.22-.41-1.2-1.14-2.11-2.35-2.56-1.61-.59-2.69-1.63-2.88-3.3-1.84-.54-3.41-1.1-4.46-2.74-.85-1.33-2.25-1.99-3.93-1.81-.54.06-1.09,0-1.79,0-.25-1.95-1.34-2.77-3.25-2.67-.65.03-1.34-.42-2-.66-.58-.21-1.14-.47-1.73-.67-1.26-.44-2.52-.86-3.78-1.28-.52-.17-1.05-.45-1.57-.45-4.47,0-8.94.03-13.41.07-.47,0-.96.11-1.41.26-5.09,1.68-9.86,3.83-13.77,7.75-3.99,4-6.64,8.8-8.41,13.94-1.47,4.29-1.7,8.91-1.48,13.59.22,4.6,1.56,8.73,3.18,12.88.37.94.97,1.8,1.47,2.7.18-.07.36-.14.54-.21-.12-1.82-.33-3.64-.33-5.46,0-1.88.2-3.76.32-5.72-1.13,0-1.78-.13-1.99-1.18-.39-1.93-.9-3.85-1.47-5.74-.23-.79,0-1.25.64-1.55.49-.22,1.03-.32,1.87-.56-.2-1.24-.26-2.42-.61-3.51-.38-1.17-.63-2.24.12-3.63.84.7,1.52,1.27,2.21,1.84,2.04-1.31.59-3.79,1.91-5.16,1.41-.13,2.74-.26,4.2-.4.14-1.43.14-2.71.42-3.93.27-1.21.82-2.36,1.43-4.05.24.92.36,1.22.39,1.53q.29,2.93,3.06,3.76c.36.11.75.13,1.3.21,1.04-2.48.06-5.52,2.55-7.81v4.81c1.36.58,2.42,1.03,3.65,1.55.31-1.3.41-2.53.9-3.56.49-1.03.11-2.67,1.86-3.07.77,1.08.29,2.2.28,3.27-.01,1.12.68,2.02,1.75,2.2,1.17.19,1.5-.61,1.72-1.54.29-1.22.79-2.31,2.26-3.08-1.13,2.8.38,4.46,2,6.09,1.81-1.1,1.25-3.7,3.56-4.77-.67,3.13.89,5.16,2.5,7.23,1.09-1.86,2.1-3.58,3.12-5.31.4.93.33,1.7.3,2.47-.02.63-.15,1.31.04,1.89.27.84.01,2.27,1.3,2.22.6-.02,1.21-1.06,1.73-1.71.5-.61.87-1.34,1.37-1.95.21-.26.62-.36,1.36-.75-1.33,2.85-.98,5.29-.31,7.84,2.55-.52,2.99-3.49,5.56-4.37-.69,1.75-1.54,3.03-1.61,4.34-.07,1.46.86,2.78,2.32,4.07.85-1.17,1.63-2.27,2.42-3.36Zm-45.38,31.61c.27-1.33.5-2.53-.69-3.39-.15-.11-.13-.44-.21-.67-.34-.95-.68-1.9-1.03-2.84-.24-.66-.62-1.31-.72-1.99-.44-3.14-1.36-6.23-1.09-9.46.02-.28-.17-.57-.26-.84-.27.05-.45.02-.55.11-.24.21-.47.44-.63.71-2.61,4.31-1.98,8.88-1,13.45.38,1.78.99,3.51,1.46,5.27.2.77.13,1.65.47,2.34,1.72,3.39,3.16,6.93,5.68,9.87,2.27,2.64,4.47,5.34,6.67,8.04.8.98,1.44,2.11,2.29,3.04,2.92,3.22,4.87,7.02,6.87,10.83,1.13,2.16,1.35,4.35,1.28,6.67-.02.58.14,1.16.23,1.83,2.57-.37,4.01-2,5.44-3.57,1.12-1.22.85-2.18-.68-2.99-.34-.18-.7-.31-.65-.29-.95-3.06-1.78-5.76-2.64-8.45-.09-.28-.36-.52-.58-.73-1.57-1.45-2.42-3.43-3.5-5.19-.78-1.27-1.16-2.64-2.67-3.38-.51-.25-.67-1.2-1.03-1.81-.87-1.45-1.73-2.91-2.68-4.3-.23-.34-.8-.49-1.24-.66-.49-.19-1-.31-1.43-.45.16-.9.29-1.65.42-2.34q-2.77-1.06-2.4-3.43c-.93-.49-1.89-.99-2.95-1.55.39-.78.74-1.47,1.11-2.22-1.11-.55-2.1-1.03-3.3-1.63Zm147.2,10.98c-.99.78-2.73.41-2.83,2-.06.97-.65,1.37-1.24,1.88-.35.31-1,.57-1.03.9-.16,1.78-1.51,2.64-2.54,3.83-1.23,1.41-1.59,3.47-3.3,4.64-.47.33-.38,1.37-.75,1.95-1.71,2.61-2.98,5.38-3.26,8.52-.1,1.15-.6,1.75-1.76,1.85-.3.02-.58.19-.85.28-.77,1.95.77,2.94,1.71,3.92,1,1.05,2,2.6,4.17,2.06.04-.68.05-1.38.12-2.07.09-.94.22-1.89.34-2.83.38-2.85,2.11-5.11,3.35-7.58,2.7-5.39,7.09-9.53,10.63-14.31,2.31-3.11,4.8-6.11,6.79-9.42,1.62-2.68,2.99-5.62,2.82-8.96-.05-.89.1-1.66.86-2.36.42-.39.46-1.25.55-1.91.08-.54-.24-1.24,0-1.62,1.24-1.9.6-3.87.36-5.81-.23-1.92-1.61-4.63-2.84-5.71-.53,1.72-.2,3.4-.42,5.02-.3,2.27-.3,4.73-1.24,6.73-.79,1.69-1.7,3.08-.79,4.94-.96.28-1.7.5-2.56.75,0,.96.29,1.98-.08,2.63-.38.67-1.4.98-2.24,1.51.28.69.58,1.4.89,2.17-.92.46-1.84.91-2.74,1.36v2.48c-.83.35-1.6.68-2.43,1.03.11.8.2,1.48.29,2.12Zm-67.91,107.36c2.43-.63,3.72-1.74,4.34-3.65.16-.48.71-.83,1.08-1.24l.47.26c-.24,1.42-.48,2.83-.72,4.25.15.03.3.06.45.09.54-1.72,1.45-3.29,1.4-5.24-.05-1.89,1.57-3.65.63-5.71-.22.11-.43.15-.47.25-.4,1.2-.83,2.4-1.14,3.63-.24.95-.72,1.32-1.7,1.22-2.27-.23-2.99-.91-3.31-3.23-.08-.55-.11-1.13-.3-1.64-.71-1.88-.47-3.75-.21-5.67.33-2.53.46-5.09.61-7.64.02-.38-.29-.77-.66-1.69-.98,1.95-1.73,3.41-2.5,4.95-1.49-1.15-.78-3.35-2.86-4.24-.18.93-.58,1.7-.42,2.34,1.11,4.44.61,8.9.25,13.36-.12,1.48-.45,2.56-2.27,2.8-1.49.2-1.75,1-1.28,2.46.33,1.05.62,2.11.95,3.24.44.11.9.24,1.36.34,2.76.59,2.75.58,3.25-2.13.12-.65.38-1.27.58-1.91l.56-.03c.63,1.6,1.26,3.2,1.91,4.85Zm44.01-80.65c2.53-.77,2.96-.47,3.01,1.66.01.56-.07,1.12,0,1.68.06.54.08,1.34.42,1.57,1.44.94,1.75,2.6,2.7,3.82.52.67,1.24,1.45,1.99,1.63,2.6.61,4.77,2.56,7.62,2.36.28-.02.62.17.87.35.8.58,1.61.57,2.48.16.25-.12.59-.12.88-.11,2.62.11,5.24.35,7.86.34,4.81-.03,9.28,1.07,13.43,3.51.95.55,1.64,1.11,1.7,2.36.04.69.52,1.45.99,2.02,1.21,1.46,2.52,2.84,3.8,4.25.55.61,1.13,1.19,1.69,1.78.19-.08.37-.17.56-.25-.06-.65.02-1.35-.19-1.94-2.47-7.09-7.6-11.41-14.66-13.36-2.96-.82-6.14-.97-9.23-1.14-3.91-.22-7.74-.78-11.43-2.06-1.95-.68-3.86-1.49-5.69-2.42-2.19-1.11-3.88-2.88-4.66-5.2-.59-1.78-.67-3.72-1-5.59-.09-.51-.28-1-.55-1.95-1.68,2.06-2.02,4.12-2.59,6.54Zm-141.5,27.23c.4-.33.75-.52.96-.81,1.8-2.5,3.72-4.89,6.2-6.78.29-.22.51-.65.58-1.01.49-2.74,2.88-3.28,4.89-3.99,3.58-1.27,7.37-1.15,11.12-1.2,4.29-.05,8.6.48,12.85-.73,1.03-.29,1.91-.54,2.64-1.38.55-.63,1.31-1.41,2.04-1.48,3.28-.32,3.52-3.33,4.9-5.29.39-.55.45-1.74-.51-2.03-.49-.15-1.41.26-1.79.71-3.12,3.7-7.47,5.2-11.89,6.13-5.13,1.08-10.39,1.56-15.61,2.16-2.49.29-4.81.97-7.02,2.09-4.42,2.25-7.52,5.71-9.41,10.27-.43,1.04-.58,2.11.06,3.35Zm108.01,17.58c2.21.23,3.09-.78,2.61-3.72-1.25.62-2.41,1.2-3.58,1.79-.58-.18-1.59-.85-2.04-.58-1.02.61-.65,1.81-.39,2.83.04.15.13.29.21.43,1.19,2.19.96,4.46.33,6.72-.89,3.16-1.83,6.29.54,9.26.17.21.21.53.46,1.2.65-6.22,1.25-11.97,1.87-17.92Zm-35.99-22.02c.1-.95.1-2.56.47-4.09.4-1.66.53-3.21.27-4.93-.36-2.35-.39-4.76-.45-7.14-.02-1.02.38-1.86,2.02-1.06-1.06-1.64-.12-3.74-2.12-4.89-.83,1.22-1.03,2.44-.79,3.71.26,1.37-.05,2.63-.22,3.97-.36,2.91-.44,5.88-.28,8.81.11,2.09.79,4.15,1.1,5.62Zm104.19-6.32c0-.16,0-.33,0-.49-2.06-.16-4.12-.44-6.18-.46-4.07-.03-8.14.13-12.21.12-2.54,0-5.11.21-7.57-.74-.28-.11-.67.08-1.01.14-.01.19-.03.37-.04.56,1.43.31,2.85.85,4.29.9,3.43.12,6.86,0,10.29-.02,4.14-.01,8.29,0,12.43,0Zm-75.07,54.34c.15-1.11.27-1.71.31-2.31.12-2.21.15-4.4.8-6.59.52-1.75.46-3.7-.26-5.6-.61.55-1.18,1.14-1.26,1.8-.39,2.91-.7,5.83-.91,8.76-.09,1.23-.06,2.54,1.32,3.95Zm32.96-125.63c-.21.02-.52-.05-.66.07-2.03,1.73-3.89.61-5.67-.41-.8-.46-1.42-1.26-2.08-1.94-1.47-1.54-2.89-3.13-4.4-4.64-.27-.27-.85-.25-1.28-.36.59,1.45,1.24,2.68,2.22,3.51,2.35,2,4.83,3.83,7.3,5.68.9.67,3.43.53,4.31-.11.65-.48.99-1.03.26-1.79Zm-45.14,110.96c-1.23,4.87.22,9.53.93,14.56,1.33-2.32.82-10.27-.93-14.56Zm30.19-35.23c.91-3.41.82-10.74-.24-14.06-.15,1.87-.05,3.39-.44,4.78-.88,3.13-.57,6.11.68,9.28Zm-92.73-78.03c-1.72,2.39-2.09,4.9-1.78,7.59.29,2.53-.38,5.23,1.55,7.63.75-1.05.68-2.01.26-3-.25-.58-.67-1.14-.71-1.73-.19-2.86-.47-5.73.44-8.55.2-.61.17-1.29.24-1.94Zm127.39,35.33c4.65-5.39,6.18-8.01,6.14-10.32-1.43,1.2-5.69,8.16-6.14,10.32Zm-117.64-42.02c-.46-1.34-1.56-1.42-2.55-1.37-.82.04-1.68.36-2.38.78-.31.19-.45.96-.36,1.41.05.23.83.51,1.2.42,1.37-.33,2.7-.8,4.09-1.24Zm26.38,9.51c-.79.14-1.45.05-1.71.34-1,1.12-1.7.74-2.54-.19-.62-.68-1.36-1.42-2.48-.86,1.2,3.13,4.13,3.59,6.73.72Zm-.65,42.78c.74,2.08,2.2,3.1,4.58,3.07-1.14-1.71-1.85-3.69-4.58-3.07Zm55.72,17.55c1-.99,1.78-1.43,1.98-2.05.21-.65-.06-1.51-.3-2.22-.05-.16-1.16-.23-1.22-.1-.43.97-.78,1.99-1.03,3.03-.07.3.28.7.56,1.33Zm-3.86,27.74l.3.09c.7-1.17,1.46-2.32,2.09-3.53.58-1.13.26-1.57-1.39-1.93-.33,1.79-.66,3.58-1,5.37Zm-55.26-55.4c0,.8-.13,1.58.05,2.29.09.37.78.91,1.08.85.4-.09.89-.64.99-1.08.26-1.08-.34-1.63-2.12-2.05Zm73.22-1.8c1.71-.54,1.67-.54,1.67-1.62,0-2.28.04-4.56.04-6.84,0-.24-.2-.48-.3-.72-.54,2.99.42,6.03-1.41,9.18Zm.11,1.32c-1.78,1.7-1.82,2.56-.43,4.18,1.3-1.19.75-2.52.43-4.18Zm-100.25-46.48c.04.21.08.42.11.64,1.93.33,3.87.66,5.8.98-.16-.57-.46-1.02-.8-1.07-1.31-.18-2.65-.09-3.8-1-.19-.15-.86.29-1.3.45Zm-6.53.82c1.57.07,2.86.23,3.97-1-2.7-.94-2.91-.89-3.97,1Zm96.63,28.02c1.97-1.48,2.55-2.66,2.18-4.57-.76,1.59-1.39,2.92-2.18,4.57Zm-93.47-21.24c-.39.15-.67.24-.93.37-.73.35-1.46.76-1.23,1.72.06.25.78.61.87.54.55-.47,1.05-1.03,1.47-1.62.12-.17-.08-.57-.16-1Zm98.03,17.42v-4.93c-.19,0-.38,0-.57,0-.14,1.62-.28,3.24.57,4.93Zm36.09-16.28c.51.73,1.02,1.47,1.71,2.47.6-2.58.57-2.63-1.71-2.47Zm-110.58,1.08c-.04.37-.2.98-.09,1.04.74.37,1.28,1.41,2.4.93q-.68-1.56-2.3-1.96Zm12.96,14.7c.18,0,.36,0,.54,0,.51-1.26.36-2.47-.54-3.66v3.66Zm32.92,127.4h2.81c.04-.18.08-.36.13-.54-.8-.32-1.59-.63-2.53-1.01-.14.53-.23.88-.4,1.55Zm42.98-142.82c.91-.91,2.23-1.05,1.7-2.77-.88.66-1.95.91-1.7,2.77Zm-3.89,3.17q1.94-1.32,1.43-2.46c-.99.51-1.89,1.01-1.43,2.46Zm-46.89,139.27q2.35.52,2.06-1.03c-.7.35-1.38.69-2.06,1.03Zm56.4-147.96c-.66.83-1.72,1.03-1.05,2.4.53-.71,1.78-.7,1.05-2.4Zm2.2-1.13q1.59.91,3.04-.53c-1.22.21-1.95.34-3.04.53Zm-99,5.65c.14-.87.22-1.57-.79-1.63-.23-.01-.66.27-.67.44-.08.87.43,1.22,1.46,1.18Zm37.71,133.29q-.04-1.73-1.16-1.6c.3.42.57.78,1.16,1.6Zm-20.29-116.18c.18-.02.35-.04.53-.05-.05-.72-.09-1.44-.14-2.16-.13,0-.26,0-.39,0v2.2Zm-8.98,17.54c.18-.03.37-.06.55-.09-.07-.7-.14-1.4-.27-2.62-.86,1.29-.68,2.01-.29,2.71Zm-10.45,37c-.13-.07-.26-.14-.38-.2-.23.4-.46.79-.69,1.19.14.08.27.15.41.23.22-.41.44-.81.66-1.22Zm18.07-68.65c.21.22.42.43.63.65.31-.36.63-.72.94-1.08-.15-.14-.3-.27-.45-.41-.37.28-.75.56-1.12.84Zm-55.06.73c-.17,0-.33,0-.5,0v1.58c.13,0,.26,0,.39,0,.03-.53.07-1.05.1-1.58Zm31.42,44.07c.18-.02.36-.05.55-.07l-.22-1.14c-.13.02-.27.04-.4.06.03.39.05.77.08,1.16Zm-.48-53c-.02-.22-.04-.43-.07-.65-.4.07-.81.14-1.21.22l.06.43h1.22Zm4,2.94c.16-.16.32-.31.48-.47-.25-.26-.49-.52-.74-.79-.18.18-.36.36-.55.54.27.24.54.48.8.72Zm96.55,70.82c.09,0,.18,0,.27,0v-1.4c-.09,0-.18,0-.27,0v1.4Z"/>
      <path class="cls-1" d="m160.89,357.92c1.83.25,3.88.47,5.9.85.52.1,1.1.63,1.4,1.12,3.59,5.81,7.16,11.63,10.69,17.47,5.33,8.83,10.64,17.68,15.94,26.54,4,6.68,7.94,13.39,11.96,20.05,3.99,6.6,8.09,13.13,12.08,19.73,2.88,4.75,5.62,9.58,8.5,14.33,3.67,6.05,7.44,12.04,11.13,18.08,2.02,3.31,3.95,6.68,5.95,10,2.38,3.96,4.78,7.9,7.18,11.84,1.9,3.12,3.79,6.24,5.72,9.34,2.44,3.91,4.92,7.79,7.36,11.7,1.89,3.03,3.73,6.08,5.59,9.12.21.34.38.7.62,1.02.89,1.21,1.79,1.26,2.62,0,1.23-1.85,2.33-3.79,3.51-5.67,3.85-6.12,7.63-12.29,11.58-18.35,5.27-8.09,10.62-16.14,16.04-24.13,5.92-8.72,11.97-17.35,17.96-26.03,4.91-7.12,9.79-14.26,14.73-21.36,3.9-5.62,7.91-11.16,11.78-16.8,3.23-4.71,6.31-9.52,9.48-14.26,2.33-3.49,4.75-6.92,7.03-10.45,4.02-6.2,8.01-12.41,11.93-18.67,2.83-4.51,5.52-9.11,8.3-13.65.59-.97,1.39-1.72,2.64-1.73,2.24-.02,4.48-.09,6.72-.03,2,.05,2.46,1.08,1.36,2.81-3.04,4.76-6.08,9.51-9.11,14.28-3.06,4.82-6.05,9.68-9.17,14.46-4.29,6.56-8.67,13.07-13.01,19.6-4.92,7.41-9.83,14.82-14.75,22.22-3.25,4.9-6.46,9.82-9.79,14.66-2.96,4.3-6.14,8.45-9.09,12.75-3.05,4.44-5.89,9.02-8.93,13.47-4.25,6.24-8.64,12.38-12.9,18.61-3.5,5.11-6.92,10.28-10.34,15.45-2.64,3.98-5.24,7.98-7.83,11.99-4.87,7.54-9.72,15.09-14.56,22.65-1.24,1.93-2.39,3.92-3.57,5.88-.91,1.5-1.87,1.59-2.87.09-1.84-2.78-3.58-5.62-5.32-8.46-2.25-3.66-4.46-7.34-6.68-11.01-1.52-2.52-3.01-5.05-4.54-7.56-3.39-5.56-6.8-11.12-10.2-16.68-4.3-7.05-8.61-14.09-12.88-21.15-3.38-5.58-6.68-11.2-10.07-16.77-3.59-5.91-7.25-11.77-10.87-17.66-3.28-5.34-6.58-10.67-9.8-16.04-4.47-7.43-8.85-14.92-13.32-22.35-2.41-4.01-4.98-7.92-7.38-11.94-5.01-8.39-9.94-16.84-14.93-25.24-2.11-3.55-4.32-7.05-6.48-10.58-.29-.47-.63-.93-.81-1.44-.44-1.26.07-2.03,1.38-2.12.64-.05,1.28,0,2.14,0Z"/>
      <path class="cls-1" d="m236.39,270.03c0,10.79,0,21.58,0,32.38,0,2.41-.3,4.75-1.04,7.08-.64,2.02-2.19,3.21-3.81,4-1.59.77-3.55,1.06-5.34,1.07-9.76.1-19.51.08-29.27.03-3.78-.02-7.07-2.71-7.76-6.36-.46-2.42-.86-4.89-.87-7.34-.07-19.99-.07-39.97,0-59.96,0-2.77.21-5.6.8-8.3.78-3.58,4-5.85,7.71-5.87,7.36-.04,14.71-.03,22.07-.04,2.72,0,5.44.07,8.16,0,3.09-.09,5.78,1,7.48,3.42,1.07,1.53,1.48,3.68,1.71,5.62.3,2.53.17,5.11.18,7.67.01,8.87,0,17.75,0,26.62h-.02Zm-16.07.45c0-8.31,0-16.63,0-24.94,0-.72.04-1.46-.12-2.15-.67-2.82-1.66-4.46-5.15-4.55-2.08-.05-4.16.02-6.24.03-1.92,0-3.19.94-3.74,2.74-.34,1.13-.69,2.31-.69,3.47-.04,14.55-.02,29.1-.02,43.64,0,2.64-.12,5.28.03,7.91.2,3.67,1.79,5.93,5.94,5.95.96,0,1.92.07,2.88.04,5.5-.17,7.05-1.75,7.11-7.21.08-8.31.02-16.63.02-24.94Z"/>
      <path class="cls-1" d="m103.13,254.17c-.61-1.77-.75-3.71-.42-5.74.34-2.15.21-4.3-.56-6.38-.76-2.07-2.06-3.12-4.25-3.19-2.08-.06-4.16-.05-6.24-.05-3.07,0-5.18,1.97-5.41,5.09-.06.8-.04,1.6-.04,2.4,0,16.15,0,32.31.01,48.46,0,.88,0,1.76.08,2.64.3,3.05,2.24,4.96,5.29,5.11,1.84.09,3.68.06,5.52,0,2.45-.09,4.37-1.75,4.9-4.13.05-.23.09-.47.1-.71.02-6.32.2-12.64-.07-18.94-.08-1.84-1.47-3.63-2.25-5.44-.29-.68-.56-1.37-.85-2.08,2.66-.88,19.94-.89,22.64,0-.27.78-.39,1.65-.83,2.32-1.85,2.83-2.57,5.84-2.48,9.27.18,7.19,0,14.39.03,21.59.02,3.17-.96,5.92-3.13,8.21-.42.44-1.01.87-1.58.97-2.59.44-5.19,1.04-7.79,1.08-7.92.12-15.84.06-23.76-.04-1.98-.03-4.08-.12-5.9-.8-2.31-.86-4.46-2.1-5.13-5.02-.49-2.14-.7-4.23-.7-6.38,0-21.51-.03-43.02.01-64.53,0-1.81.29-3.66.74-5.42.82-3.2,3.58-5.41,6.88-5.51,4.95-.15,9.91-.16,14.87-.19,4.8-.03,9.6.06,14.4-.02,2.43-.04,4.9.04,6.96,1.25,1.31.77,2.45,2.29,3.04,3.73.71,1.72,1,3.71,1.03,5.59.12,7.27.07,14.55.09,21.83,0,.32.02.64-.02.96-.19,1.44-.84,1.86-2.09,1.22-2.27-1.16-4.5-2.4-6.74-3.61-2.08-1.13-4.15-2.28-6.35-3.49Z"/>
      <path class="cls-1" d="m364.03,92.89c1.2-.12,2.2-.3,3.2-.3,21.68-.02,43.35-.01,65.03-.02,5.68,0,11.36.02,17.04-.03,8.55-.08,17.1-.34,25.65-.31,21.67.06,43.34.23,65.01.39,1,0,1.99.24,2.99.36.19,1.75-.67,2.84-1.35,3.95-5.88,9.74-11.79,19.45-17.7,29.17-4.78,7.88-9.6,15.74-14.35,23.63-3.56,5.92-7.01,11.91-10.6,17.81-2.35,3.86-4.96,7.57-7.31,11.44-2.35,3.86-4.48,7.86-6.78,11.75-1.33,2.26-2.82,4.41-4.18,6.65-3.8,6.25-7.58,12.52-11.36,18.77-.37.61-.75,1.22-1.15,1.81-.77,1.12-1.74,1.73-3.21,1.63-1.83-.13-3.68.05-5.51-.09-.7-.05-1.58-.46-1.98-1-.54-.73.17-1.39.63-2.08,1.8-2.71,3.52-5.47,5.2-8.25,3.83-6.32,7.62-12.66,11.41-19,2.28-3.82,4.49-7.68,6.8-11.48,3.01-4.96,6.11-9.88,9.13-14.83,3.44-5.63,6.85-11.27,10.26-16.91,3.73-6.18,7.43-12.37,11.16-18.54,3.12-5.16,6.27-10.3,9.42-15.43,1.41-2.3,2.87-4.58,4.3-6.87.25-.4.51-.81.66-1.26.51-1.5.12-2.08-1.51-2.13-2-.06-4,0-6,0-40.31,0-80.62.02-120.94,0-10.71,0-21.43-.06-32.14-.08-.99,0-1.81-.16-1.83-1.34-.04-2.38-.01-4.77-.01-7.4Z"/>
      <path class="cls-1" d="m0,93.02c1.46-.23,2.29-.47,3.11-.47,20.63,0,41.27.05,61.9.01,7.75-.01,15.51-.5,23.25-.31,29.58.72,59.16.09,88.73.32.16,0,.32,0,.48,0,2.83.04,2.99.21,2.95,3-.02,1.2.05,2.4.01,3.6-.05,1.71-.59,2.24-2.32,2.38-.48.04-.96.01-1.44.01-51.66.05-103.32.11-154.98.16-.88,0-1.76-.07-2.64-.03-1.82.08-2.3.93-1.38,2.46,1.67,2.79,3.38,5.57,5.04,8.36,1.58,2.65,3.08,5.35,4.7,7.97,2.25,3.65,4.63,7.22,6.86,10.87,4.13,6.77,8.18,13.59,12.3,20.37,1.28,2.1,2.69,4.12,3.98,6.21.62,1.01,1.05,2.14,1.66,3.15,3.71,6.1,7.47,12.17,11.18,18.28,6.82,11.21,13.62,22.43,20.42,33.64.78,1.29,1.55,2.59,2.23,3.93.76,1.49.15,2.51-1.5,2.57-1.84.06-3.68.03-5.51.09-1.52.05-2.64-.64-3.39-1.86-2.76-4.54-5.44-9.14-8.21-13.68-2.56-4.2-5.21-8.35-7.77-12.55-2.19-3.6-4.29-7.26-6.46-10.86-2.21-3.67-4.49-7.29-6.69-10.96-2.57-4.29-5.04-8.64-7.61-12.92-1.97-3.27-4.08-6.45-6.06-9.72-2.63-4.35-5.15-8.77-7.8-13.11-3.52-5.76-7.18-11.44-10.69-17.22-3.87-6.37-7.62-12.82-11.44-19.22-.8-1.34-1.71-2.62-2.92-4.47Z"/>
      <path class="cls-1" d="m328.72,313.31c-.31,1.12-1.1,1.31-2.06,1.31-6.4,0-12.79.02-19.19-.01-.48,0-1.28-.26-1.36-.56-.14-.5.06-1.19.34-1.68.7-1.24,1.56-2.39,2.29-3.61,1.93-3.27,1.83-7.05,2.56-10.62.8-3.89,1.52-7.8,2.27-11.69.15-.78.28-1.56.42-2.34.61-3.44,1.22-6.88,1.83-10.32.34-1.88.7-3.76,1.02-5.65,1.11-6.53,2.15-13.06,3.32-19.58.83-4.63,1.88-9.23,2.74-13.86.36-1.96.48-3.96.75-5.93.21-1.55.58-1.98,2.14-1.99,7.03-.04,14.06-.02,21.29-.02.35.8.82,1.55,1,2.36.4,1.78.63,3.6.96,5.4.92,5.02,1.9,10.02,2.78,15.04.78,4.48,1.43,8.98,2.19,13.46.82,4.88,1.66,9.75,2.54,14.62,1.23,6.82,2.51,13.63,3.78,20.44.39,2.12.85,4.22,1.22,6.34.45,2.56,1.62,4.79,3.03,6.93.49.74,1.1,1.81.89,2.51-.37,1.27-1.75.74-2.73.75-5.84.03-11.68.02-17.51.03-.56,0-1.13.05-1.68-.04-1.1-.18-1.42-.8-.97-1.88.58-1.4,1.34-2.73,1.76-4.17.32-1.11.37-2.34.3-3.5-.12-1.75-.36-3.5-.72-5.22-.38-1.82-.8-2.15-2.6-2.16-3.76-.03-7.52-.02-11.27.05-2.25.04-2.72.58-2.97,2.85-.12,1.11-.23,2.23-.51,3.31-.65,2.55-.15,4.87,1.12,7.11.43.75.7,1.58,1.02,2.32Zm7.21-67.6c-.17-.01-.33-.02-.5-.03-.12.37-.28.72-.35,1.1-.57,3.12-1.21,6.22-1.67,9.36-1.34,9.14-2.61,18.29-3.9,27.43-.17,1.23.38,2.1,1.59,2.13,3.03.06,6.07.04,9.1-.08,1.43-.06,1.82-.84,1.5-2.3-.22-1.01-.4-2.02-.54-3.05-.44-3.16-.81-6.32-1.29-9.47-.49-3.21-1.16-6.39-1.61-9.61-.49-3.46-.76-6.96-1.24-10.42-.24-1.7-.72-3.37-1.09-5.05Z"/>
      <path class="cls-1" d="m429.62,313.27c.65-1.11,1.33-2.17,1.92-3.28.98-1.84,1.67-3.72,1.67-5.89-.05-21.19-.04-42.37-.05-63.56,0-.4.03-.81-.03-1.2-.2-1.17-.95-1.71-2.06-1.29-1.1.41-2.16.97-3.16,1.59-2.8,1.74-5.53,3.59-8.36,5.29-1.66,1-2.46.51-2.46-1.45,0-4.87.06-9.75.15-14.62.03-1.61.43-1.97,1.97-2.12.56-.05,1.12-.03,1.68-.03,13.6,0,27.19,0,40.79,0,3.56,0,3.58.04,3.57,3.61-.02,4.32-.04,8.63-.06,12.95-.01,2.29-.82,2.79-2.75,1.61-2.91-1.77-5.78-3.61-8.68-5.41-.61-.38-1.21-.76-1.85-1.08-1.77-.89-2.67-.35-2.79,1.67-.05.96-.02,1.92-.02,2.88,0,19.67.06,39.34-.06,59-.02,3.73.67,7.05,2.71,10.17,1.23,1.89.82,2.48-1.45,2.49-6.08.03-12.16.03-18.23.04-.97,0-1.97.08-2.45-1.37Z"/>
      <path class="cls-1" d="m254.97,453.38c.07-.73,0-1.51.24-2.19,1.15-3.39,2.4-6.74,3.55-10.12.62-1.81,1.1-3.66,1.66-5.5.49-1.62-.19-2.79-1.46-3.7-4.4-3.13-8.81-6.24-13.19-9.4-.37-.27-.52-.84-.83-1.38,1.74-.82,3.28-1.23,5.01-1.19,4.32.08,8.64.03,12.96.01,2.37,0,2.46,0,3.23-2.24,1.11-3.21,2.06-6.46,3.12-9.69.62-1.9,1.26-3.79,1.99-5.64.2-.52.79-.88,1.48-1.61.47.94.86,1.51,1.06,2.14,1.51,4.77,3.01,9.54,4.46,14.33.67,2.19,1.26,2.72,3.57,2.73,4.88.01,9.76-.05,14.64.02,1.13.02,2.26.45,3.54.72-.77,2.35-2.72,3-4.13,4.09-2.88,2.23-6,4.15-8.98,6.25-.83.59-1.7,1.25-2.24,2.08-.38.58-.47,1.56-.28,2.25.65,2.38,1.49,4.72,2.25,7.07,1.02,3.18,2.06,6.36,3.01,9.56.13.44-.15,1-.24,1.51-.5-.13-1.08-.14-1.48-.42-2.4-1.71-4.75-3.5-7.14-5.24-2.16-1.57-4.31-3.17-6.54-4.65-1.13-.75-2.45-.78-3.62,0-1.9,1.28-3.75,2.62-5.61,3.95-2.33,1.67-4.63,3.38-6.96,5.04-.77.54-1.61.99-2.42,1.47-.21-.09-.43-.18-.64-.27Z"/>
      <path class="cls-1" d="m258.76,190.89c1.25,4.55,1.15,9.19,2.85,13.69,1.37-.98,1.47-2.21,1.61-3.47.35-3.39.77-6.78,1.19-10.41,2.26-.08,4.56-.27,6.85-.21,1.48.04,1.82.77,1.43,2.33-.72,2.86-1.57,5.69-2.18,8.57-.88,4.12-1.56,8.28-2.39,12.41-.26,1.32-.73,2.59-1.13,4.01-2.2.64-4.51.56-6.8.38-1.27-.1-1.95-.95-2.16-2.2-.32-1.97-.65-3.93-.98-5.89-.17-1-.06-2.12-1.44-2.83-.46,1.96-.91,3.85-1.33,5.74-.19.86-.32,1.72-.5,2.58-.47,2.29-.74,2.59-3.09,2.83-1.27.13-2.56.11-3.83.06-1.54-.07-2.3-.78-2.58-2.31-.44-2.42-.8-4.86-1.27-7.28-.31-1.63-.76-3.23-1.14-4.85-.87-3.7-1.74-7.4-2.59-11.11-.14-.6-.13-1.24-.22-2.14,1.03-.17,1.93-.39,2.84-.45.71-.05,1.43.16,2.15.16,4.32-.02,3.37.59,3.76,3.8.43,3.55,1.03,7.07,1.58,10.81,1.63-.54,1.57-1.73,1.75-2.75.65-3.76,1.28-7.52,1.94-11.46h5.69Z"/>
      <path class="cls-1" d="m273.49,339.22c1.6,1.33,2.79,2.31,3.97,3.29,2.36-1.4,1.79-3.85,2.86-5.73h5.76c.89,1.05.48,2.06.06,3-.69,1.53-1.47,3.01-2.2,4.51-.93,1.93-.21,3.06,1.97,3.08,2.2.02,2.23.04,2.77,2.01.17.62.34,1.24.44,1.86.34,2.13-.41,2.95-2.48,2.53-1.24-.25-2.49-.64-3.61-1.2-2.12-1.07-4.01-1.25-6.36-.22-4.85,2.13-9.66,1.6-14.03-1.55-4.15-2.99-4.94-8.97-1.61-12.82,1.24-1.44,1.59-2.62.79-4.49-1.75-4.08.18-8.53,4.38-10.59,4.07-2,9.58-1.5,13.08,2.46,1.49,1.68,1.98,3.7,1.59,5.79-.58,3.1-2.01,5.63-5.41,6.52-.59.15-1.06.8-1.98,1.54Zm-6.34-9.07c-.07,2.65,1.66,3.98,3.77,3.24,1.11-.39,2.19-.91,3.21-1.5,1.28-.74,1.39-2.11.36-3.15-1.62-1.61-5.18-1.56-6.68.15-.39.44-.56,1.07-.65,1.25Zm-.31,10.95c-1.18.33-1.77,1.02-1.73,1.95.04.9.19,1.95.69,2.64,1.49,2.05,4.48,2.64,7.34,1.48-1.81-2.49-4.28-4.12-6.3-6.08Z"/>
      <path class="cls-1" d="m353.49,352.43c-.39,1.03-1.31,1.03-2.19,1.04-1.92,0-3.84.05-5.75-.06-.63-.04-1.39-.36-1.78-.81-.18-.21.25-1.21.65-1.59.66-.63.8-1.31.8-2.14,0-2.08.07-4.15.02-6.23-.02-.78-.18-1.6-.5-2.3-.69-1.56-.53-2.95-.06-4.6,1.03-3.62,1.33-7.34-.48-10.91-.23-.46-.31-1-.5-1.65.63-.15,1.07-.35,1.5-.34,5.35.03,10.72-.12,16.06.2,5.12.3,10.28,4.39,9.94,10.1-.14,2.31-1.28,4.08-2.85,5.58-2.92,2.78-2.87,2.86-.25,5.87,2.06,2.37,4.27,4.67,5.65,7.53-.59,1.1-1.53,1.23-2.5,1.26-1.68.04-3.36.08-5.03.05-1.63-.03-1.74-.22-1.86-1.91-.04-.52-.22-1.1-.53-1.51-1.68-2.21-3.39-4.4-5.17-6.53-1.03-1.24-4.2-1.94-5.58-1.22-.46.24-.9.95-.93,1.47-.11,1.91-.2,3.85.02,5.74.12,1.02.86,1.97,1.33,2.97Zm3.02-15.91c.72,0,1.46.13,2.14-.03,1.45-.33,3.15-.43,4.23-1.28,2.39-1.9,1.47-5.14-1.5-6.05-2.49-.76-5.03-.68-7.57-.41-1.12.12-1.72.73-1.75,1.87-.01.48-.02.95-.02,1.43,0,4.52.05,4.58,4.47,4.47Z"/>
      <path class="cls-1" d="m325.6,337.64c.84.05,1.69.13,2.53.14,1.68.02,3.35-.06,5.03,0,1.58.05,2.06.66,2.13,2.24.11,2.47-.94,4.59-2.42,6.34-4.2,4.96-9.58,7.4-16.17,6.84-3.15-.26-6.32-1.1-8.73-2.92-3.64-2.74-6.14-6.59-7.18-11.18-.07-.31-.1-.65-.04-.95,1-4.7,2.75-9,6.86-11.86,3.18-2.22,6.78-3.19,10.67-3.37,5.36-.25,9.63,1.89,13.29,5.58.56.56,1.3.94,1.84,1.51,1.08,1.15.85,2.13-.57,2.82-1.98.96-3.98,1.9-5.94,2.91-.58.3-1.05.82-1.58,1.24.09.22.18.44.27.66Zm-.71,6.49c-.25-.05-.56-.17-.85-.15-3.14.28-3.36.1-3.37-3.01,0-.56-.07-1.17.13-1.66.29-.69.7-1.41,1.24-1.9.99-.89,2.07-1.69,3.2-2.41.53-.34,1.32-.41,1.19-1.23-.11-.67-.29-1.45-.72-1.93-.72-.82-1.56-1.74-2.54-2.09-3.13-1.14-6.36-1.65-9.51-.04-1.96,1-3.71,2.47-4.34,4.56-.81,2.69-.56,5.53.09,8.28.05.2.33.34.46.53,2.2,3.04,5.35,4.24,8.91,4.18,1.91-.03,3.94-.27,5.65-1.49.63-.45.9-.84.47-1.64Z"/>
      <path class="cls-1" d="m209.89,203.37c-.27-2.22.2-4.93,1.44-7.34,1.69-3.27,4.22-5.82,8.12-6.2,2.53-.25,5.13-.34,7.64-.01,3.7.47,6.53,2.44,8.48,5.78,2.03,3.5,1.75,7.22,1.52,10.94-.13,2.04-.45,4.06-1.41,6-1.85,3.76-4.93,5.64-8.87,6.16-2.2.29-4.47.16-6.69.05-3.3-.16-8.04-3.73-9.15-7.09-.85-2.57-1.09-5.12-1.08-8.29Zm8.3.91c.06.01.12.02.17.03,0,.56-.08,1.13.02,1.67.16.93.46,1.84.66,2.77.41,1.97,1.82,3.36,3.78,3.69,1.76.3,3.85-.8,4.68-2.39,1.77-3.39,1.63-6.95.61-10.44-.99-3.39-4.67-4.53-7.64-2.55-.54.36-1.09,1.01-1.24,1.62-.45,1.84-.71,3.73-1.04,5.6Z"/>
      <path class="cls-1" d="m372.65,204.01c-.48,2.64-.78,5.33-1.52,7.89-.37,1.3-1.37,2.54-2.38,3.5-2.16,2.06-4.66,3.54-7.83,3.43-1.52-.05-3.03-.01-4.55-.01-3.6,0-6.45-1.84-8.73-4.26-1.21-1.29-1.85-3.4-2.1-5.22-.41-2.98-.69-6.1-.29-9.05.4-2.89,1.4-5.67,4.01-7.79,2.25-1.82,4.55-2.73,7.31-2.83,3.02-.11,5.99-.23,8.92,1.04,2.84,1.23,4.52,3.4,5.66,6.03.98,2.26,1.54,4.68,1,7.23.16.02.33.03.49.05Zm-8.35.63c-.38-1.86-.74-3.48-1.04-5.11-.36-1.9-1.67-2.93-3.38-3.28-1.75-.35-3.43-.01-4.81,1.4-1.26,1.3-1.21,2.92-1.32,4.48-.21,2.78-.29,5.51,1.07,8.16.96,1.88,2.59,2.05,4.2,2.12,1.81.08,3.27-1.03,3.94-2.64.69-1.66.93-3.5,1.33-5.13Z"/>
      <path class="cls-1" d="m276.3,190.97c2.76-.8,5.31-.58,7.83-.22.48.07,1.05.66,1.28,1.15,1.38,2.94,2.65,5.93,4.02,8.87.62,1.34,1.39,2.6,2.21,4.13.94-1.23.82-2.32.8-3.41-.05-2.79-.13-5.59-.08-8.38.04-2.16.42-2.45,2.59-2.49,1.12-.02,2.24-.02,3.35.04,1.68.09,1.83.31,1.81,2.06-.1,6.22-.22,12.45-.26,18.67-.01,1.51.26,3.02.33,4.53.07,1.57-.28,2.12-1.8,2.24-1.9.15-3.83.09-5.74.04-1.46-.04-1.86-1.3-2.38-2.33-1.19-2.32-2.34-4.66-3.47-7.01-.51-1.07-.9-2.19-1.38-3.27-.11-.26-.37-.45-.9-1.07-.2,1.32-.44,2.21-.45,3.11-.05,2.55,0,5.11,0,7.67,0,2.34-.39,2.76-2.75,2.93-.8.06-1.59.12-2.39.18q-1.31.09-2.67-.96c.53-8.79.5-17.54.06-26.5Z"/>
      <path class="cls-1" d="m316.24,190.79h7.88c0,2.12,0,4.01,0,5.9q0,4.19,4.28,4.14c.64,0,1.28,0,1.92-.04,1.84-.08,2.41-.63,2.41-2.49,0-1.84-.13-3.67-.16-5.51-.03-1.85.19-2.1,2.01-2.15,1.6-.05,3.2-.05,4.8,0,.44.01.88.27,1.34.42.05.39.14.7.13,1.01-.18,6.78-.39,13.56-.53,20.35-.02,1.18.25,2.36.45,3.54.28,1.64-.26,2.42-1.96,2.5-1.44.07-2.88.09-4.32.03-1.56-.07-2.04-.72-1.98-2.29.08-2.07.22-4.15.16-6.22-.06-2.3-.47-2.58-2.71-2.54-1.82.03-3.64,0-5.69,0-.07,1.02-.16,1.79-.16,2.56,0,1.84,0,3.68.05,5.52.05,2.44-.5,3.03-2.86,2.96-1.11-.03-2.23-.03-3.34-.08-1.4-.06-1.96-.71-1.96-2.11.01-8.23.01-16.46.03-24.69,0-.15.08-.3.21-.8Z"/>
      <path class="cls-1" d="m121.14,190.62c2.24,0,4.29-.03,6.35.01.85.02,1.32.55,1.32,1.4,0,.8-.07,1.59-.11,2.39-.08,1.36-.23,2.71-.21,4.07.02,1.54.66,2.23,2.15,2.3,1.67.08,3.36.02,5.04,0,1.08-.02,1.6-.61,1.6-1.67,0-2.08-.02-4.16,0-6.23.01-1.9.32-2.31,2.17-2.37,1.9-.06,3.8.08,5.8.14.08.82.17,1.35.17,1.89-.01,7.67-.05,15.35-.05,23.02,0,2.44-.42,2.91-2.92,2.93-.96,0-1.92-.04-2.87-.04-1.82,0-2.46-.63-2.38-2.42.1-2.23.25-4.46.32-6.69.05-1.57-.18-1.82-1.72-1.86-1.68-.05-3.36-.07-5.03,0-1.78.07-2.24.54-2.26,2.35-.01,1.51.17,3.03.26,4.54.05.8.17,1.6.09,2.39-.11,1.08-.78,1.76-1.92,1.73-1.52-.04-3.05-.08-4.54-.3-1.6-.24-2.02-1.15-1.67-2.77.24-1.08.42-2.19.41-3.29,0-6.63-.08-13.27-.12-19.9,0-.39.07-.79.14-1.61Z"/>
      <path class="cls-1" d="m78.92,353.46c-1.84,0-3.67,0-5.51,0-2.05-.01-2.43-.59-1.59-2.41.13-.29.38-.57.39-.86.15-3.57.68-7.17-.34-10.69-.3-1.04-.43-1.9.06-2.97.41-.9.48-2.02.46-3.04-.08-3,.56-6.06-.89-8.95-.38-.76.24-1.57,1.01-1.56,4.27.09,8.62-.97,12.77.77,1.06.45,2.15,1.03,2.98,1.82,2.3,2.18,3.1,4.97,2.42,8.03-.36,1.62-.18,2.86.88,4.18,2.58,3.21,2.8,6.77,1.34,10.58-1.06,2.76-3.04,4.23-5.85,4.57-2.69.32-5.4.42-8.11.61,0-.03,0-.05-.01-.08Zm3.67-5.87v.03c.48,0,.96.02,1.44,0,.4-.02.8-.04,1.19-.14,1.88-.47,2.95-1.68,2.92-3.27-.03-1.63-1.37-3.14-3.24-3.26-1.74-.11-3.51.06-5.26.21-1,.09-1.46.76-1.59,1.79-.45,3.72.26,4.56,4.05,4.64.16,0,.32,0,.48,0Zm-4.6-15.69s.04,0,.06,0c0,.64-.05,1.28.01,1.91.15,1.44.67,1.8,2.04,1.52.78-.16,1.55-.31,2.34-.44,1.62-.26,2.28-.77,2.56-2.07.29-1.35.04-2.5-1.14-3.4-1.59-1.21-3.33-.85-5.03-.49-.35.07-.68.82-.81,1.31-.14.52-.03,1.11-.03,1.66Z"/>
      <path class="cls-1" d="m392.42,190.89c2.58-.43,5-.23,7.58-.06.1.74.27,1.34.26,1.95-.04,5.51-.07,11.02-.18,16.52-.07,3.24-1.17,6.02-3.93,8-1.07.76-2.13,1.32-3.48,1.32-2.31,0-4.62.24-6.92.14-3.14-.13-5.85-1.31-7.84-3.86-.24-.3-.58-.61-.64-.96-.36-2.04-.87-4.08-.94-6.13-.18-5.34-.16-10.69-.21-16.04,0-.23.12-.45.23-.85,2.52-.68,5.05-.76,7.81.13,0,1.12,0,2.14,0,3.17,0,4.31-.06,8.62.04,12.93.03,1.15.37,2.36.87,3.4.68,1.44,2.07,2.01,3.61,1.8,1.59-.22,2.93-1.01,3.31-2.7.31-1.39.53-2.84.54-4.26.03-3.99-.06-7.98-.11-11.97,0-.79,0-1.57,0-2.53Z"/>
      <path class="cls-1" d="m131.92,352.42c1.47-1.26,1.41-2.89,1.4-4.47-.02-3.18.52-6.39-.71-9.49-.16-.4-.14-.98.01-1.4,1.21-3.26.73-6.63.62-9.96-.03-.83-.56-1.63-.83-2.46-.33-1-.03-1.53,1-1.72.47-.09.96-.06,1.43-.06,3.2,0,6.4.09,9.59,0,7.2-.22,10.85,6.06,9.59,12.03-.27,1.27-1.09,2.45-1.77,3.6-.49.82-1.19,1.5-1.76,2.27-.47.64-.48,1.27.02,1.97,1.9,2.72,3.78,5.47,5.61,8.24.32.49.63,1.2.51,1.71-.2.82-1.02.81-1.79.77-1.28-.07-2.56-.01-3.83-.06-1.15-.05-1.91-.45-2.07-1.82-.1-.9-.56-1.83-1.07-2.62-1.15-1.8-2.33-3.59-3.68-5.23-.6-.73-1.58-1.37-2.5-1.6-1.8-.45-2.56.19-2.6,2.04-.04,2.53-.5,5.11.87,7.5.43.74.19,1.62-.69,1.66-2.22.08-4.45-.06-6.67-.14-.16,0-.31-.32-.71-.76Zm7.43-23.65c-.37,2.25-.28,4.46-.05,6.66.04.39.69,1.01,1.09,1.03,2.05.1,4.13.42,6.1-.57,1.51-.75,2.31-2.33,1.99-4.18-.31-1.83-1.35-2.86-3.16-2.93-1.9-.07-3.81-.02-5.97-.02Z"/>
      <path class="cls-1" d="m240.43,341.76c1.95,2.94,3.93,5.89,5.85,8.87.36.56.85,1.55.63,1.85-.39.52-1.27.86-1.98.92-1.26.12-2.56.03-3.83-.05-1.04-.07-1.6-.59-1.97-1.7-.56-1.71-1.44-3.32-2.29-4.92-.59-1.11-1.38-2.11-2.06-3.17-.79-1.23-3.57-1.9-4.74-1.01-.43.33-.81,1.04-.8,1.57.02,2.37-.28,4.76.86,7.05.73,1.47.25,2.14-1.32,2.22-1.52.08-3.04.1-4.55.01-1.29-.08-1.76-.79-1.25-1.92,1.44-3.23,1.17-6.58.62-9.89-.44-2.63-.62-5.1.04-7.79.65-2.66.71-5.51-.5-8.23-.88-1.98-.37-2.62,1.79-2.66,3.12-.05,6.24-.1,9.35-.07,2.78.02,5.27.78,7.4,2.75,2.72,2.52,3.84,7.35,2.11,10.71-.97,1.88-2.21,3.61-3.35,5.45Zm-11.1-6.41c2.72,1.68,5.24,1.44,7.76.33,2.22-.98,2.87-4.04.82-5.66-2.35-1.86-4.92-1.51-7.51-1.08-.42.07-.98.88-1.02,1.39-.13,1.65-.05,3.31-.05,5.02Z"/>
      <path class="cls-1" d="m174.92,322.94c4.61-.14,7.7,1.87,10.3,4.86.68.78,1.43,1.51,1.99,2.37.81,1.25.53,1.89-.74,2.71-1.19.76-2.35,1.59-3.4,2.53-.37.33-.58,1.15-.45,1.64.09.34.85.65,1.35.71.95.11,1.92-.02,2.87.03,1.38.07,2.12.77,1.98,2.11-.47,4.49-2.47,8.18-6.25,10.74-1.56,1.06-3.15,2.04-5.12,2.44-4.84,1-11.45-1.58-14.1-7.13-.62-1.29-1.06-2.67-1.73-3.93-1.24-2.31-.99-4.63-.21-6.96.58-1.73,1.13-3.49,1.92-5.13,1.05-2.18,2.76-3.87,4.86-5.07,2.22-1.27,4.53-2.32,6.74-1.91Zm2.66,14.72c.74,0,1.29-.03,1.84,0,.91.06,1.35-.51,1.52-1.23.25-1.07.41-2.16.51-3.26.04-.44-.06-.97-.29-1.35-1.35-2.26-4.99-3.68-7.55-3-3.79,1-6.32,4.37-6.21,8.2.03.95-.09,1.91-.07,2.87.01.71,0,1.47.25,2.12,1.59,4.12,6.77,6.38,10.86,4.64.94-.4,2.12-1.07,2.15-2.74-.65.1-1.16.19-1.67.25-1.06.13-1.75-.35-1.83-1.39-.12-1.65-.31-3.33.5-5.11Z"/>
      <path class="cls-1" d="m422.55,198.66c-.64-.37-1.3-.7-1.92-1.1-2.31-1.5-4.79-2.17-7.52-1.61-.95.19-1.87.43-1.98,1.71-.11,1.3.61,1.91,1.69,2.25,2.06.65,4.13,1.24,6.18,1.89,2.23.71,4.31,1.68,5.44,3.91.35.68.73,1.44.75,2.18.05,1.67-.01,3.36-.22,5.02-.32,2.53-2.35,3.65-4.29,4.73-2.78,1.55-5.87,1.13-8.87,1.19-1.67.03-3.35-.15-5.02-.21-2.01-.06-2.3-.32-2.37-2.39-.05-1.6-.1-3.19-.05-4.79.06-1.71.81-2.03,2.34-1.2,1.32.71,2.75,1.23,4.07,1.96,1.64.91,3.27.38,4.89.1.83-.15,1.6-.69,1.48-1.61-.09-.71-.46-1.75-.98-1.97-1.96-.82-4-1.51-6.07-1.98-2.47-.57-4.42-1.86-5.44-4.08-1.8-3.93-1.26-7.68,2.02-10.96,1.12-1.12,3.06-1.73,4.7-1.92,2.52-.29,5.1-.01,7.65.04.56.01,1.11.09,1.67.09,2.57.01,2.62.05,2.59,2.72-.02,1.89-.04,3.78-.06,5.67l-.68.38Z"/>
      <path class="cls-1" d="m429.37,191.05c2.24-.64,17.03-.5,18.78.24,0,1.28.06,2.71-.02,4.13-.08,1.53-.66,1.87-2.16,1.74-2.22-.18-4.45-.32-6.68-.32-1.7,0-2.11.48-2.13,1.9-.02,1.5.51,2.01,2.26,2.06,1.49.04,2.98,0,4.75,0,0,1.97.06,3.62-.02,5.26-.05,1.01-.73,1.56-1.77,1.56-.8,0-1.6-.09-2.39-.06-.85.03-1.71.15-2.65.24-.08.63-.2,1.08-.19,1.53.04,1.68.44,2.22,2.07,2.25,2.23.05,4.47-.02,6.69-.18,1.84-.13,2.32.16,2.39,2,.05,1.35,0,2.7,0,4.17-.82.3-1.48.74-2.13.74-4.78-.04-9.57-.08-14.34-.3-2.53-.12-2.58-.52-2.55-2.95.1-6.87.07-13.73.1-20.6,0-1.11,0-2.22,0-3.42Z"/>
      <path class="cls-1" d="m169.23,191.25c0,1.26.05,2.61-.01,3.95-.08,1.56-.54,1.94-2.12,1.87-1.68-.07-3.35-.2-5.03-.27-.63-.03-1.28-.03-1.9.09-1.13.21-1.53,1.11-1.62,2.11-.08.91.73,1.68,1.9,1.74,1.5.08,3.01.02,4.51.02,1.01,2.03.55,3.95.36,5.81-.04.39-.86.91-1.38,1.01-.76.15-1.59,0-2.38-.08-2.22-.2-3.03.19-3.14,1.55-.15,1.77.82,2.58,3.11,2.56,1.76-.01,3.52-.1,5.28-.08.83,0,1.66.19,2.57.3,0,1.7.06,3.13-.02,4.56-.07,1.43-.65,2.11-2.06,2.1-4.88-.01-9.75-.07-14.63-.25-1.84-.07-2.14-.84-2.11-2.73.12-7.03.13-14.05.18-21.08,0-1.1,0-2.21,0-3.26,1.73-.73,16.57-.69,18.5.08Z"/>
      <path class="cls-1" d="m108.02,322.76c.07.76.27,1.23.12,1.52-1.89,3.54-1.24,7.28-.86,10.98.05.46.38.88.45,1.33.12.73.42,1.63.14,2.2-1.25,2.48-.72,4.97-.42,7.53,1.59.77,3.11,1.45,4.85,1.2,2.61-.37,3.91-1.52,4.01-4.43.04-1.16-.45-2.32-.6-3.49-.12-.91-.28-1.89-.09-2.76.91-4,1.38-7.96-.24-11.91-.62-1.52-.26-2.07,1.37-2.1,1.98-.04,3.96,0,6.28,0-.1.82.03,1.53-.27,1.92-.8,1.05-.87,2.21-.8,3.41.16,3.09.68,6.21.49,9.28-.26,4.17-.2,8.52-2.38,12.29-.61,1.06-1.95,1.87-3.13,2.4-4.05,1.8-8.85,2.28-13.15-1.61-1.5-1.36-2.08-3.36-2.32-5.37-.27-2.22-.5-4.44-.64-6.66-.06-1.02.02-2.08.25-3.08.7-3.11.33-6.2,0-9.29-.08-.75-.49-1.46-.84-2.44,2.4-1.47,5.04-.45,7.77-.92Z"/>
      <path class="cls-1" d="m202.34,334.57c1.22.96,2.49.5,3.75.43,1.27-.07,2.54-.02,3.95-.02.78,1.74.32,3.58.25,5.35-.04.98-.94,1.15-1.82,1.07-1.27-.12-2.54-.25-3.81-.29-.7-.02-1.4.12-2.14.2-.17.68-.36,1.2-.43,1.74-.47,3.88.12,4.56,3.95,4.54,2.14,0,4.24.08,6.36-.65,2.29-.79,2.87-.19,2.87,2.21,0,4.13-.03,4.17-4.09,4.21-4.24.04-8.47.05-12.71.07-.48,0-.96,0-1.44-.05-1.91-.2-2.3-.86-1.37-2.47,1-1.73,1.31-3.56,1.05-5.51-.52-3.8-.92-7.61-.38-11.44.12-.87.3-1.73.43-2.59.34-2.27.09-4.44-.98-6.51-.77-1.5-.47-2.03,1.23-2.04,5.27-.03,10.55,0,15.82.06,1.7.02,2.29.68,2.37,2.32.04.88.06,1.76,0,2.64-.1,1.6-.74,2.2-2.12,1.57-2.71-1.22-5.51-.69-8.28-.73-1.91-.03-2.35.46-2.53,2.4-.09.87-.09,1.75-.1,2.63,0,.31.12.61.17.87Z"/>
      <path class="cls-1" d="m440.61,352.24c1.8-3.08,1.47-6.56,1.27-9.95-.09-1.54-1.2-3.03-1.2-4.55,0-1.42.98-2.82,1.24-4.28.24-1.32.11-2.71.12-4.07,0-1.77-.04-3.47-1.57-4.81-.78-.68-.39-1.63.62-1.65,2.71-.06,5.43,0,8.15.04.2,0,.4.21.62.33.04.26.18.54.09.71-1.8,3.65-.94,7.51-.93,11.3,0,.46.14.98.39,1.36.62,1,.55,1.95.07,2.96-.9,1.89-.74,3.88-.55,5.88.09.94.49,1.49,1.35,1.73.53.15,1.08.35,1.62.36,3.66.04,7.34.37,10.92-.89,1.6-.56,2.15-.07,2.15,1.65,0,.96-.04,1.92-.11,2.87-.11,1.44-.59,1.95-2.06,2.14-.71.09-1.44.07-2.16.07-5.84,0-11.68-.01-17.52,0-.98,0-1.95.01-2.5-1.18Z"/>
      <path class="cls-1" d="m430.06,346.2c1.05.43,1.13,1.28,1.07,2.21-.06.95-.11,1.9-.13,2.86-.03,1.3-.5,1.9-1.75,2.12-.39.07-.8.05-1.2.05-6.39.02-12.78.03-19.18.04-.88,0-1.8.05-2.27-1.05,1.67-2.93,1.61-6.21,1.49-9.46-.04-1.06-.63-2.12-1.07-3.13-.44-1.02-.53-1.98,0-2.99,1.55-2.91,1.1-6.07.99-9.15-.04-.97-.68-1.93-1.1-2.86-.62-1.36-.37-1.97,1.11-2,2.23-.05,4.47.04,6.71.12,1.03.04,1.46.66,1.08,1.63-1.37,3.49-.71,7.07-.55,10.64.08,1.89.02,3.8-.03,5.69-.04,1.43-.23,2.87-.23,4.3,0,1.48.37,1.98,1.76,2.05,3.27.17,6.55.3,9.81.21,1.12-.03,2.22-.78,3.49-1.27Z"/>
      <path class="cls-1" d="m117.31,190.83c0,1.86.06,3.37-.02,4.87-.07,1.37-.39,1.52-1.87,1.37-1.34-.14-2.7-.26-4.05-.28-1.62-.02-2.18.47-2.2,2.13-.06,5.43-.1,10.86-.04,16.29.04,2.79-.25,3.22-3.04,3.27-.72.01-1.44.05-2.16.04-2.26-.02-2.84-.6-2.83-2.82.02-4.95.06-9.9.07-14.85,0-3.97-.24-4.18-4.28-3.92-.8.05-1.59.17-2.39.18-.92.01-1.49-.48-1.63-1.41-.02-.16-.05-.32-.04-.48.09-4.46-.82-4.59,4.22-4.55,5.75.04,11.5,0,17.25.02.86,0,1.72.09,2.99.16Z"/>
      <path class="cls-1" d="m182.98,191.04c3.56-.84,21.28-.76,24.18.12,0,1.4.04,2.89-.01,4.39-.04,1.19-.73,1.68-1.91,1.57-1.27-.12-2.55-.25-3.82-.25-1.89,0-2.37.4-2.38,2.18-.04,5.35-.06,10.7.06,16.05.07,2.83-.38,3.42-3.22,3.25-.79-.05-1.59.01-2.39.04-1.9.07-2.45-.45-2.42-2.33.06-4.63.13-9.27.18-13.9.01-1.12.04-2.24-.05-3.35-.11-1.45-.67-2.02-2.13-2.02-1.27,0-2.55.19-3.82.28-1.8.14-2.2-.18-2.27-1.88-.05-1.35,0-2.7,0-4.15Z"/>
      <path class="cls-1" d="m153.48,314.59c-2.16,0-4.32.05-6.47-.02-1.52-.04-1.83-.33-1.85-1.87-.05-3.91-.05-7.83,0-11.74.02-1.52.55-2,2.06-2.01,4.07-.04,8.15-.05,12.22,0,1.63.02,2.38.72,2.4,2.31.07,3.83.06,7.67.02,11.5-.01,1.37-.52,1.84-1.91,1.87-2.16.05-4.31.01-6.47.01,0-.02,0-.04,0-.05Z"/>
      <path class="cls-1" d="m273.17,314.61c-2.07,0-4.15.04-6.22-.01-1.74-.05-2.42-.81-2.43-2.53-.01-3.34-.02-6.69-.01-10.03,0-2.14.88-3.05,3.02-3.06,3.75-.03,7.5-.04,11.25-.03,2.03,0,2.42.27,2.47,2.32.1,3.82.07,7.65-.02,11.47-.04,1.63-.37,1.86-2.08,1.9-1.99.05-3.99.01-5.98.01v-.03Z"/>
      <path class="cls-1" d="m397.06,314.63c-1.92,0-3.83.02-5.75,0-1.96-.03-2.29-.29-2.31-2.18-.05-3.67-.06-7.35,0-11.02.03-1.89.61-2.45,2.45-2.47,3.75-.03,7.51-.03,11.26.02,2.03.03,2.59.57,2.62,2.55.06,3.59.08,7.19.06,10.78,0,1.72-.54,2.24-2.34,2.29-2,.06-3.99.01-5.99.01h0Z"/>
      <path class="cls-1" d="m389.83,322.89c1.2,0,2.4-.08,3.59.02,1.16.1,1.62.82,1.03,1.79-2.02,3.29-.92,6.85-1,10.3-.02.61.72,1.21.92,1.87.19.63.43,1.54.13,1.96-1.26,1.78-1.17,3.8-1.18,5.75-.01,2.43-.38,4.94,1.14,7.19.55.82.09,1.5-1.01,1.6-1.11.11-2.24.03-3.35.03-1.04,0-2.08.04-3.12,0-1.69-.05-2.11-.7-1.5-2.32.11-.3.34-.55.44-.85.71-2.05,1.29-4.06.62-6.3-.52-1.74-.74-3.59-.96-5.4-.08-.66.12-1.4.33-2.05,1.27-3.96.92-7.84-.49-11.67-.5-1.36-.19-1.94,1.29-1.99,1.04-.04,2.08,0,3.12,0,0,.02,0,.04,0,.06Z"/>
      <path class="cls-1" d="m262.86,66.99c.28,1.05.47,2.14.85,3.15,1.04,2.73,2.26,5.4,3.2,8.16.45,1.31.43,2.78.63,4.2-1.16.03-1.37-.83-1.71-1.5-1.05-2.08-2.31-3.85-4.49-5.02-2.1-1.12-2.13-1.75-1.34-3.9.44-1.2.79-2.42,1.26-3.61.23-.6.63-1.13.95-1.69.22.07.43.14.65.21Z"/>
      <path class="cls-1" d="m278.39,81.97c1.23-5.5,3.51-10.31,5.04-15.54,1.13.56,1.23,1.48,1.46,2.25.34,1.15.61,2.32.82,3.5.18,1.06.06,2.19-.91,2.8-1.87,1.17-2.73,3.03-3.76,4.81-.52.9-.78,2.15-2.64,2.17Z"/>
      <path class="cls-1" d="m272.57,79v-24.21c1.57,3.05,1.81,6,1.57,9.11-.19,2.53-.07,5.08-.07,7.62,0,1.91.09,3.83.07,5.74,0,.78-.07,1.65-1.57,1.74Z"/>
      <path class="cls-1" d="m287.4,53.17c-2.42.6-4.07-.4-5.79-.83-.33-.08-.72-.93-.67-1.37.25-2.05.99-3.9,2.54-5.49,1.34,2.63,2.56,5.02,3.91,7.69Z"/>
      <path class="cls-1" d="m262.78,45.85c1.67,1.26,1.61,3.18,2.38,4.69.06.13.04.32.01.47-.27,1.61-1.85,1.56-2.87,2.21-.85.54-1.87.65-2.68-.02-.29-.24-.4-1.08-.2-1.45,1.02-1.95,2.16-3.83,3.36-5.9Z"/>
      <path class="cls-1" d="m272.75,117c1.38.19,1.54,1.09,1.45,1.97-.16,1.47.64,3.21-1.04,4.33-1.51-1.5-1.67-4.09-.41-6.3Z"/>
      <path class="cls-1" d="m264.55,110.36c.79.69,1.33.92,1.4,1.25.41,1.94.36,3.88-.08,6.2-1.94-2.28-1.72-4.53-1.32-7.45Z"/>
    </g>
  </g>
</svg>